<mxfile modified="2024-05-01T18:35:33.110Z" host="app.diagrams.net" agent="Mozilla/5.0 (Macintosh; Intel Mac OS X 10_15_7) AppleWebKit/537.36 (KHTML, like Gecko) Chrome/124.0.0.0 Safari/537.36" etag="Tkpz7fZfdEbjIIyxipgs" version="24.3.1" type="google">
  <diagram id="WI9T0HZ2pTsCkuznbFz-" name="Page-1">
    <mxGraphModel grid="1" page="1" gridSize="10" guides="1" tooltips="1" connect="1" arrows="1" fold="1" pageScale="1" pageWidth="827" pageHeight="583" math="0" shadow="0">
      <root>
        <mxCell id="0" />
        <mxCell id="1" parent="0" />
        <mxCell id="e_ERtWOM5ls1ba6LLizI-8" value="" style="shape=image;verticalLabelPosition=bottom;labelBackgroundColor=#ffffff;verticalAlign=top;aspect=fixed;imageAspect=0;image=data:image/svg+xml,PHN2ZyB4bWxuczpkYz0iaHR0cDovL3B1cmwub3JnL2RjL2VsZW1lbnRzLzEuMS8iIHhtbG5zOmNjPSJodHRwOi8vY3JlYXRpdmVjb21tb25zLm9yZy9ucyMiIHhtbG5zOnJkZj0iaHR0cDovL3d3dy53My5vcmcvMTk5OS8wMi8yMi1yZGYtc3ludGF4LW5zIyIgeG1sbnM6c3ZnPSJodHRwOi8vd3d3LnczLm9yZy8yMDAwL3N2ZyIgeG1sbnM9Imh0dHA6Ly93d3cudzMub3JnLzIwMDAvc3ZnIiB4bWxuczpzb2RpcG9kaT0iaHR0cDovL3NvZGlwb2RpLnNvdXJjZWZvcmdlLm5ldC9EVEQvc29kaXBvZGktMC5kdGQiIHhtbG5zOmlua3NjYXBlPSJodHRwOi8vd3d3Lmlua3NjYXBlLm9yZy9uYW1lc3BhY2VzL2lua3NjYXBlIiB2ZXJzaW9uPSIxLjEiIGlkPSJzdmc3NjkyMyIgaW5rc2NhcGU6dmVyc2lvbj0iMC45Mi4zICgyNDA1NTQ2LCAyMDE4LTAzLTExKSIgc29kaXBvZGk6ZG9jbmFtZT0iZGF0YV9sYWtlLnN2ZyIgeD0iMHB4IiB5PSIwcHgiIHZpZXdCb3g9IjAgMCA1My43OCA3MS4xMyIgeG1sOnNwYWNlPSJwcmVzZXJ2ZSIgd2lkdGg9IjUzLjc3OTk5OSIgaGVpZ2h0PSI3MS4xMjk5OTciPjxtZXRhZGF0YSBpZD0ibWV0YWRhdGEyMjgyMyI+PHJkZjpSREY+PGNjOldvcmsgcmRmOmFib3V0PSIiPjxkYzpmb3JtYXQ+aW1hZ2Uvc3ZnK3htbDwvZGM6Zm9ybWF0PjxkYzp0eXBlIHJkZjpyZXNvdXJjZT0iaHR0cDovL3B1cmwub3JnL2RjL2RjbWl0eXBlL1N0aWxsSW1hZ2UiLz48ZGM6dGl0bGUvPjwvY2M6V29yaz48L3JkZjpSREY+PC9tZXRhZGF0YT48ZGVmcyBpZD0iZGVmczIyODIxIi8+JiN4YTs8ZmlsdGVyIGlkPSJmaWx0ZXJfMiI+JiN4YTsJPGZlR2F1c3NpYW5CbHVyIGlkPSJmZUdhdXNzaWFuQmx1cjc2ODMwIiBzdGREZXZpYXRpb249IjIiLz4mI3hhOzwvZmlsdGVyPiYjeGE7PHNvZGlwb2RpOm5hbWVkdmlldyBib3JkZXJjb2xvcj0iIzY2NjY2NiIgYm9yZGVyb3BhY2l0eT0iMSIgZml0LW1hcmdpbi1ib3R0b209IjAiIGZpdC1tYXJnaW4tbGVmdD0iMCIgZml0LW1hcmdpbi1yaWdodD0iMCIgZml0LW1hcmdpbi10b3A9IjAiIGdyaWR0b2xlcmFuY2U9IjEwIiBndWlkZXRvbGVyYW5jZT0iMTAiIGlkPSJuYW1lZHZpZXc3NjkyNSIgaW5rc2NhcGU6Y3VycmVudC1sYXllcj0ic3ZnNzY5MjMiIGlua3NjYXBlOmN4PSItNTUuMzI3MzQ3IiBpbmtzY2FwZTpjeT0iNDcuNzkxMTMzIiBpbmtzY2FwZTpwYWdlb3BhY2l0eT0iMCIgaW5rc2NhcGU6cGFnZXNoYWRvdz0iMiIgaW5rc2NhcGU6d2luZG93LWhlaWdodD0iMTAxNyIgaW5rc2NhcGU6d2luZG93LW1heGltaXplZD0iMSIgaW5rc2NhcGU6d2luZG93LXdpZHRoPSIxOTIwIiBpbmtzY2FwZTp3aW5kb3cteD0iLTgiIGlua3NjYXBlOndpbmRvdy15PSItOCIgaW5rc2NhcGU6em9vbT0iNC44MDg5OTYiIG9iamVjdHRvbGVyYW5jZT0iMTAiIHBhZ2Vjb2xvcj0iI2ZmZmZmZiIgc2hvd2dyaWQ9ImZhbHNlIj4mI3hhOwk8L3NvZGlwb2RpOm5hbWVkdmlldz4mI3hhOyYjeGE7PHBhdGggaWQ9InBhdGg3Njg0NSIgaW5rc2NhcGU6Y29ubmVjdG9yLWN1cnZhdHVyZT0iMCIgc3R5bGU9ImZpbGw6IzNlM2UzZSIgZD0ibSAwLDkuNjggdiA1MS42NCBjIDAsNS40IDExLjk1LDkuNjcgMjYuODksOS42NyBWIDkuNjggWiIvPiYjeGE7JiN4YTs8cGF0aCBpZD0icGF0aDc2ODUzIiBpbmtzY2FwZTpjb25uZWN0b3ItY3VydmF0dXJlPSIwIiBzdHlsZT0iZmlsbDojYTBhMWEyIiBkPSJtIDI2LjQ2LDcxLjEzIGggMC40MyBjIDE0Ljc5LDAgMjYuODgsLTQuNDEgMjYuODgsLTkuNjcgViA5LjY3IEggMjYuNDYgWiIvPiYjeGE7JiN4YTs8cGF0aCBpZD0icGF0aDc2ODYxIiBpbmtzY2FwZTpjb25uZWN0b3ItY3VydmF0dXJlPSIwIiBzdHlsZT0iZmlsbDojZmZmZmZmIiBkPSJtIDUzLjc4LDkuNjggYyAwLDUuNCAtMTEuOTUsOS42NyAtMjYuODksOS42NyBDIDExLjk1LDE5LjM1IDAsMTUuMDggMCw5LjY4IDAsNC40MSAxMi4wOSwwIDI2Ljg5LDAgNDEuNjgsMCA1My43OCw0LjQxIDUzLjc4LDkuNjggWiIvPiYjeGE7JiN4YTs8cGF0aCBpZD0icGF0aDc2ODY5IiBpbmtzY2FwZTpjb25uZWN0b3ItY3VydmF0dXJlPSIwIiBzdHlsZT0iZmlsbDojN2ZiYTAwIiBkPSJtIDQ4LjIzLDkuMTEgYyAwLDMuNTYgLTkuNTMsNi40IC0yMS4zNCw2LjQgLTExLjgxLDAgLTIxLjM0LC0yLjg0IC0yMS4zNCwtNi40IDAsLTMuNTYgOS41MywtNi40IDIxLjM0LC02LjQgMTEuODEsMCAyMS4zNCwyLjg0IDIxLjM0LDYuNCB6Ii8+JiN4YTsmI3hhOzxwYXRoIGlkPSJwYXRoNzY4NzciIGlua3NjYXBlOmNvbm5lY3Rvci1jdXJ2YXR1cmU9IjAiIHN0eWxlPSJmaWxsOiNiOGQ0MzIiIGQ9Im0gNDMuODIsMTMuMDkgYyAyLjg0LC0xLjE0IDQuNDEsLTIuNDIgNC40MSwtMy45OCAwLC0zLjU2IC05LjUzLC02LjQgLTIxLjM0LC02LjQgLTExLjgxLDAgLTIxLjM0LDIuODQgLTIxLjM0LDYuNCAwLDEuNDIgMS43MSwyLjg0IDQuNDEsMy45OCAzLjg0LC0xLjU2IDkuOTYsLTIuNTYgMTYuOTMsLTIuNTYgNi44MywwIDEyLjk1LDEgMTYuOTMsMi41NiB6Ii8+JiN4YTsmI3hhOzxwYXRoIGlkPSJwYXRoNzY4ODgiIGlua3NjYXBlOmNvbm5lY3Rvci1jdXJ2YXR1cmU9IjAiIHN0eWxlPSJmaWxsOiMzOTk5YzYiIGQ9Ik0gMjYuNDYsNzEuMTMgViA0NS41MiBjIC0zLjk4LDAgLTcuNCwtMi4xMyAtOS4zOSwtNS4yNiAtMS45OSwzLjEzIC01LjI2LDUuMjYgLTkuMjUsNS4yNiAtMy4xMywwIC01LjgzLC0xLjI4IC03LjgyLC0zLjQxIHYgMTkuMzUgYyAwLDUuMjYgMTEuODEsOS41MyAyNi40Niw5LjY3IHoiLz4mI3hhOzxnIGlkPSJzaGFkb3c1MTA2LTM1IiB0cmFuc2Zvcm09InRyYW5zbGF0ZSgtNTIuNzY2OCwtMjIuNTAzNzU0KSI+JiN4YTs8L2c+JiN4YTsmI3hhOyYjeGE7JiN4YTs8cGF0aCBpZD0icGF0aDc2OTA4IiBpbmtzY2FwZTpjb25uZWN0b3ItY3VydmF0dXJlPSIwIiBzdHlsZT0iZmlsbDojNTliNGQ5IiBkPSJtIDQ1LjUzLDQ1LjUyIGMgLTMuOTgsMCAtNy41NCwtMi4xMyAtOS41MywtNS4yNiAtMS44NSwzLjEzIC01LjI3LDUuMTIgLTkuMjUsNS4yNiB2IDI1LjYxIGMgMTQuOCwwIDI2Ljg5LC00LjQxIDI2Ljg5LC05LjY3IFYgNDEuOTcgYyAtMS45OSwyLjEzIC00Ljg0LDMuNTUgLTguMTEsMy41NSB6Ii8+JiN4YTsmI3hhOyYjeGE7PC9zdmc+;" vertex="1" parent="1">
          <mxGeometry x="580" y="284" width="43" height="56" as="geometry" />
        </mxCell>
        <mxCell id="e_ERtWOM5ls1ba6LLizI-1" value="" style="shape=image;verticalLabelPosition=bottom;labelBackgroundColor=#ffffff;verticalAlign=top;aspect=fixed;imageAspect=0;image=data:image/svg+xml,PHN2ZyB4bWxuczpkYz0iaHR0cDovL3B1cmwub3JnL2RjL2VsZW1lbnRzLzEuMS8iIHhtbG5zOmNjPSJodHRwOi8vY3JlYXRpdmVjb21tb25zLm9yZy9ucyMiIHhtbG5zOnJkZj0iaHR0cDovL3d3dy53My5vcmcvMTk5OS8wMi8yMi1yZGYtc3ludGF4LW5zIyIgeG1sbnM6c3ZnPSJodHRwOi8vd3d3LnczLm9yZy8yMDAwL3N2ZyIgeG1sbnM9Imh0dHA6Ly93d3cudzMub3JnLzIwMDAvc3ZnIiB4bWxuczpzb2RpcG9kaT0iaHR0cDovL3NvZGlwb2RpLnNvdXJjZWZvcmdlLm5ldC9EVEQvc29kaXBvZGktMC5kdGQiIHhtbG5zOmlua3NjYXBlPSJodHRwOi8vd3d3Lmlua3NjYXBlLm9yZy9uYW1lc3BhY2VzL2lua3NjYXBlIiB2ZXJzaW9uPSIxLjEiIGlkPSJzdmcxMDQ1NzIiIGlua3NjYXBlOnZlcnNpb249IjAuOTIuMyAoMjQwNTU0NiwgMjAxOC0wMy0xMSkiIHNvZGlwb2RpOmRvY25hbWU9InNxbC5zdmciIHg9IjBweCIgeT0iMHB4IiB2aWV3Qm94PSIwIDAgNDYuMDMgNjEuMDIiIHhtbDpzcGFjZT0icHJlc2VydmUiIHdpZHRoPSI0Ni4wMjk5OTkiIGhlaWdodD0iNjEuMDIiPjxtZXRhZGF0YSBpZD0ibWV0YWRhdGExMDQ4Ij48cmRmOlJERj48Y2M6V29yayByZGY6YWJvdXQ9IiI+PGRjOmZvcm1hdD5pbWFnZS9zdmcreG1sPC9kYzpmb3JtYXQ+PGRjOnR5cGUgcmRmOnJlc291cmNlPSJodHRwOi8vcHVybC5vcmcvZGMvZGNtaXR5cGUvU3RpbGxJbWFnZSIvPjxkYzp0aXRsZS8+PC9jYzpXb3JrPjwvcmRmOlJERj48L21ldGFkYXRhPjxkZWZzIGlkPSJkZWZzMTA0NiI+JiN4YTsJJiN4YTsmI3hhOwkmI3hhOyYjeGE7CSYjeGE7JiN4YTsJJiN4YTsmI3hhOwkmI3hhOyYjeGE7CSYjeGE7JiN4YTsJJiN4YTsmI3hhOwkmI3hhOyYjeGE7CSYjeGE7JiN4YTsJCSYjeGE7CSYjeGE7CQkmI3hhOwkmI3hhOwkJJiN4YTsJJiN4YTsJCSYjeGE7CSYjeGE7CQkmI3hhOwkmI3hhOwkJJiN4YTsJJiN4YTsJCSYjeGE7CSYjeGE7CQkmI3hhOwk8L2RlZnM+JiN4YTs8ZmlsdGVyIGlkPSJmaWx0ZXJfMiI+JiN4YTsJPGZlR2F1c3NpYW5CbHVyIGlkPSJmZUdhdXNzaWFuQmx1cjEwNDQ4OSIgc3RkRGV2aWF0aW9uPSIyIi8+JiN4YTs8L2ZpbHRlcj4mI3hhOzxzb2RpcG9kaTpuYW1lZHZpZXcgYm9yZGVyY29sb3I9IiM2NjY2NjYiIGJvcmRlcm9wYWNpdHk9IjEiIGZpdC1tYXJnaW4tYm90dG9tPSIwIiBmaXQtbWFyZ2luLWxlZnQ9IjAiIGZpdC1tYXJnaW4tcmlnaHQ9IjAiIGZpdC1tYXJnaW4tdG9wPSIwIiBncmlkdG9sZXJhbmNlPSIxMCIgZ3VpZGV0b2xlcmFuY2U9IjEwIiBpZD0ibmFtZWR2aWV3MTA0NTc0IiBpbmtzY2FwZTpjdXJyZW50LWxheWVyPSJzdmcxMDQ1NzIiIGlua3NjYXBlOmN4PSIwLjI3NDc3MzkyIiBpbmtzY2FwZTpjeT0iMjcuOTI1ODA5IiBpbmtzY2FwZTpwYWdlb3BhY2l0eT0iMCIgaW5rc2NhcGU6cGFnZXNoYWRvdz0iMiIgaW5rc2NhcGU6d2luZG93LWhlaWdodD0iMTAxNyIgaW5rc2NhcGU6d2luZG93LW1heGltaXplZD0iMSIgaW5rc2NhcGU6d2luZG93LXdpZHRoPSIxOTIwIiBpbmtzY2FwZTp3aW5kb3cteD0iLTgiIGlua3NjYXBlOndpbmRvdy15PSItOCIgaW5rc2NhcGU6em9vbT0iNy42MDUyNjMyIiBvYmplY3R0b2xlcmFuY2U9IjEwIiBwYWdlY29sb3I9IiNmZmZmZmYiIHNob3dncmlkPSJmYWxzZSI+JiN4YTsJPC9zb2RpcG9kaTpuYW1lZHZpZXc+JiN4YTsmI3hhOzxwYXRoIGlkPSJwYXRoMTA0NTAyIiBpbmtzY2FwZTpjb25uZWN0b3ItY3VydmF0dXJlPSIwIiBzdHlsZT0iZmlsbDojMDA3MmM2IiBkPSJtIDAsOC4zNCB2IDQ0LjM0IGMgMCw0LjYxIDEwLjMxLDguMzQgMjMuMDIsOC4zNCBWIDguMzQgWiIvPiYjeGE7JiN4YTs8cGF0aCBpZD0icGF0aDEwNDUxMCIgaW5rc2NhcGU6Y29ubmVjdG9yLWN1cnZhdHVyZT0iMCIgc3R5bGU9ImZpbGw6IzAwNzJjNiIgZD0ibSAyMi43LDYxLjAyIGggMC4zMiBjIDEyLjcxLDAgMjMuMDEsLTMuNzMgMjMuMDEsLTguMzQgViA4LjM0IEggMjIuNyBaIi8+JiN4YTsmI3hhOzxwYXRoIGlkPSJwYXRoMTA0NTE4IiBpbmtzY2FwZTpjb25uZWN0b3ItY3VydmF0dXJlPSIwIiBzdHlsZT0iZmlsbDojZmZmZmZmO2ZpbGwtb3BhY2l0eTowLjE1IiBkPSJtIDIyLjcsNjEuMDIgaCAwLjMyIGMgMTIuNzEsMCAyMy4wMSwtMy43MyAyMy4wMSwtOC4zNCBWIDguMzQgSCAyMi43IFoiLz4mI3hhOyYjeGE7PHBhdGggaWQ9InBhdGgxMDQ1MjYiIGlua3NjYXBlOmNvbm5lY3Rvci1jdXJ2YXR1cmU9IjAiIHN0eWxlPSJmaWxsOiNmZmZmZmYiIGQ9Im0gNDYuMDMsOC4zMyBjIDAsNC42MSAtMTAuMyw4LjM0IC0yMy4wMSw4LjM0IEMgMTAuMzEsMTYuNjcgMCwxMi45NCAwLDguMzMgMCwzLjczIDEwLjMxLDAgMjMuMDIsMCAzNS43MywwIDQ2LjAzLDMuNzMgNDYuMDMsOC4zMyBaIi8+JiN4YTsmI3hhOzxwYXRoIGlkPSJwYXRoMTA0NTM0IiBpbmtzY2FwZTpjb25uZWN0b3ItY3VydmF0dXJlPSIwIiBzdHlsZT0iZmlsbDojN2ZiYTAwIiBkPSJtIDQxLjMyLDcuODUgYyAwLDMuMDQgLTguMTksNS41IC0xOC4zMSw1LjUgLTEwLjExLDAgLTE4LjMxLC0yLjQ2IC0xOC4zMSwtNS41IDAsLTMuMDQgOC4yLC01LjUgMTguMzEsLTUuNSAxMC4xMiwwIDE4LjMxLDIuNDYgMTguMzEsNS41IHoiLz4mI3hhOyYjeGE7PHBhdGggaWQ9InBhdGgxMDQ1NDIiIGlua3NjYXBlOmNvbm5lY3Rvci1jdXJ2YXR1cmU9IjAiIHN0eWxlPSJmaWxsOiNiOGQ0MzIiIGQ9Im0gMzcuNSwxMS4yMSBjIDIuMzksLTAuOTMgMy44MywtMi4wOSAzLjgzLC0zLjM2IDAsLTMuMDQgLTguMTksLTUuNSAtMTguMzEsLTUuNSAtMTAuMTEsMCAtMTguMzEsMi40NiAtMTguMzEsNS41IDAsMS4yNyAxLjQ0LDIuNDMgMy44NCwzLjM2IDMuMzUsLTEuMyA4LjU4LC0yLjE0IDE0LjQ3LC0yLjE0IDUuOSwwIDExLjEzLDAuODQgMTQuNDgsMi4xNCB6Ii8+JiN4YTsmI3hhOzxwYXRoIGlkPSJwYXRoMTA0NTUwIiBpbmtzY2FwZTpjb25uZWN0b3ItY3VydmF0dXJlPSIwIiBzdHlsZT0iZmlsbDojZmZmZmZmIiBkPSJtIDE1LjcxLDM5LjExIGMgMCwxLjM4IC0wLjUsMi40NSAtMS41LDMuMjEgLTEsMC43NSAtMi4zOCwxLjEzIC00LjE0LDEuMTMgLTEuNSwwIC0yLjc1LC0wLjI3IC0zLjc2LC0wLjgxIFYgMzkuNCBjIDEuMTYsMC45OCAyLjQ0LDEuNDggMy44NCwxLjQ4IDAuNjcsMCAxLjIsLTAuMTQgMS41NiwtMC40MSAwLjM3LC0wLjI3IDAuNTYsLTAuNjMgMC41NiwtMS4wNyAwLC0wLjQ0IC0wLjE4LC0wLjgyIC0wLjUzLC0xLjE1IEMgMTEuMzgsMzcuOTMgMTAuNjYsMzcuNTEgOS41NywzNyA3LjM2LDM1Ljk2IDYuMjUsMzQuNTQgNi4yNSwzMi43NCBjIDAsLTEuMyAwLjQ4LC0yLjM1IDEuNDUsLTMuMTMgMC45NiwtMC43OSAyLjI1LC0xLjE4IDMuODUsLTEuMTggMS40MiwwIDIuNTksMC4xOCAzLjUyLDAuNTUgdiAzLjAzIEMgMTQuMDksMzEuMzQgMTIuOTgsMzEgMTEuNzMsMzEgYyAtMC42MywwIC0xLjEyLDAuMTMgLTEuNDksMC40IC0wLjM2LDAuMjcgLTAuNTQsMC42MiAtMC41NCwxLjA3IDAsMC40NiAwLjE0LDAuODMgMC40NCwxLjEzIDAuMjksMC4yOSAwLjg5LDAuNjUgMS44LDEuMDkgMS4zNiwwLjY0IDIuMzMsMS4yOSAyLjkxLDEuOTUgMC41NywwLjY2IDAuODYsMS40OSAwLjg2LDIuNDcgeiIvPiYjeGE7JiN4YTs8cGF0aCBpZD0icGF0aDEwNDU1OCIgaW5rc2NhcGU6Y29ubmVjdG9yLWN1cnZhdHVyZT0iMCIgc3R5bGU9ImZpbGw6I2ZmZmZmZiIgZD0ibSAzMS4zMywzNS44NCBjIDAsMS43MSAtMC4zOSwzLjE5IC0xLjE2LDQuNDUgLTAuNzgsMS4yNSAtMS44NywyLjEzIC0zLjI4LDIuNjQgbCA0LjIxLDMuOSBoIC00LjI1IGwgLTMuMDEsLTMuMzcgYyAtMS4yOSwtMC4wNSAtMi40NiwtMC4zOSAtMy40OSwtMS4wMyAtMS4wNCwtMC42MyAtMS44NCwtMS41IC0yLjQsLTIuNjEgLTAuNTcsLTEuMSAtMC44NSwtMi4zMyAtMC44NSwtMy42OSAwLC0xLjUgMC4zMSwtMi44NSAwLjkyLC00LjAyIDAuNjEsLTEuMTggMS40NywtMi4wOSAyLjU3LC0yLjcyIDEuMTEsLTAuNjQgMi4zOCwtMC45NiAzLjgxLC0wLjk2IDEuMzQsMCAyLjU0LDAuMzEgMy41OSwwLjkzIDEuMDYsMC42MSAxLjg4LDEuNDggMi40NywyLjYyIDAuNTgsMS4xMyAwLjg3LDIuNDIgMC44NywzLjg2IHogbSAtMy40NCwwLjE4IGMgMCwtMS40NyAtMC4zMiwtMi42MyAtMC45NiwtMy40OSAtMC42NSwtMC44NSAtMS41MiwtMS4yOCAtMi42NCwtMS4yOCAtMS4xMywwIC0yLjA0LDAuNDMgLTIuNzIsMS4yOSAtMC42OCwwLjg1IC0xLjAzLDEuOTkgLTEuMDMsMy40MiAwLDEuNDIgMC4zNCwyLjU1IDEuMDEsMy40IDAuNjcsMC44NCAxLjU1LDEuMjcgMi42NiwxLjI3IDEuMTMsMCAyLjAyLC0wLjQxIDIuNjgsLTEuMjMgMC42NywtMC44MiAxLC0xLjk1IDEsLTMuMzggeiIvPiYjeGE7JiN4YTs8cGF0aCBpZD0icGF0aDEwNDU2NiIgaW5rc2NhcGU6Y29ubmVjdG9yLWN1cnZhdHVyZT0iMCIgc3R5bGU9ImZpbGw6I2ZmZmZmZiIgZD0iTSA0Mi4zOSw0My4yIEggMzMuNzQgViAyOC42NyBoIDMuMjcgdiAxMS44OCBoIDUuMzggeiIvPiYjeGE7PC9zdmc+;" vertex="1" parent="1">
          <mxGeometry x="130" y="160" width="46" height="61" as="geometry" />
        </mxCell>
        <mxCell id="e_ERtWOM5ls1ba6LLizI-2" value="&lt;font style=&quot;font-size: 15px;&quot;&gt;Azure&amp;nbsp;&lt;/font&gt;&lt;div style=&quot;font-size: 15px;&quot;&gt;&lt;font style=&quot;font-size: 15px;&quot;&gt;SQL DB&lt;/font&gt;&lt;/div&gt;" style="text;html=1;align=center;verticalAlign=middle;whiteSpace=wrap;rounded=1;fillColor=#f8cecc;strokeColor=#b85450;glass=0;shadow=0;" vertex="1" parent="1">
          <mxGeometry x="37.5" y="167.75" width="75" height="45.5" as="geometry" />
        </mxCell>
        <mxCell id="e_ERtWOM5ls1ba6LLizI-3" value="" style="shape=image;verticalLabelPosition=bottom;labelBackgroundColor=#ffffff;verticalAlign=top;aspect=fixed;imageAspect=0;image=data:image/svg+xml,PHN2ZyB4bWxuczpjYz0iaHR0cDovL2NyZWF0aXZlY29tbW9ucy5vcmcvbnMjIiB4bWxuczpkYz0iaHR0cDovL3B1cmwub3JnL2RjL2VsZW1lbnRzLzEuMS8iIHhtbG5zOmlua3NjYXBlPSJodHRwOi8vd3d3Lmlua3NjYXBlLm9yZy9uYW1lc3BhY2VzL2lua3NjYXBlIiB4bWxuczpyZGY9Imh0dHA6Ly93d3cudzMub3JnLzE5OTkvMDIvMjItcmRmLXN5bnRheC1ucyMiIHhtbG5zOnNvZGlwb2RpPSJodHRwOi8vc29kaXBvZGkuc291cmNlZm9yZ2UubmV0L0RURC9zb2RpcG9kaS0wLmR0ZCIgeG1sbnM6c3ZnPSJodHRwOi8vd3d3LnczLm9yZy8yMDAwL3N2ZyIgeG1sbnM9Imh0dHA6Ly93d3cudzMub3JnLzIwMDAvc3ZnIiB4bWxuczp4bGluaz0iaHR0cDovL3d3dy53My5vcmcvMTk5OS94bGluayIgdmVyc2lvbj0iMS4xIiBpZD0ic3ZnOTcyNDYiIGlua3NjYXBlOnZlcnNpb249IjAuOTIuMyAoMjQwNTU0NiwgMjAxOC0wMy0xMSkiIHNvZGlwb2RpOmRvY25hbWU9ImNvc21vX2RiLnN2ZyIgeD0iMHB4IiB5PSIwcHgiIHZpZXdCb3g9IjAgMCA1Ni4yIDUxLjc0IiBzdHlsZT0iZW5hYmxlLWJhY2tncm91bmQ6bmV3IDAgMCA1Ni4yIDUxLjc0OyIgeG1sOnNwYWNlPSJwcmVzZXJ2ZSI+JiN4YTs8c29kaXBvZGk6bmFtZWR2aWV3IGJvcmRlcmNvbG9yPSIjNjY2NjY2IiBib3JkZXJvcGFjaXR5PSIxIiBmaXQtbWFyZ2luLWJvdHRvbT0iMCIgZml0LW1hcmdpbi1sZWZ0PSIwIiBmaXQtbWFyZ2luLXJpZ2h0PSIwIiBmaXQtbWFyZ2luLXRvcD0iMCIgZ3JpZHRvbGVyYW5jZT0iMTAiIGd1aWRldG9sZXJhbmNlPSIxMCIgaWQ9Im5hbWVkdmlldzk3MjQ4IiBpbmtzY2FwZTpjdXJyZW50LWxheWVyPSJzdmc5NzI0NiIgaW5rc2NhcGU6Y3g9IjM3LjY0MjY5MyIgaW5rc2NhcGU6Y3k9IjM0LjQ5MzIyNiIgaW5rc2NhcGU6cGFnZW9wYWNpdHk9IjAiIGlua3NjYXBlOnBhZ2VzaGFkb3c9IjIiIGlua3NjYXBlOndpbmRvdy1oZWlnaHQ9IjEwMTciIGlua3NjYXBlOndpbmRvdy1tYXhpbWl6ZWQ9IjEiIGlua3NjYXBlOndpbmRvdy13aWR0aD0iMTkyMCIgaW5rc2NhcGU6d2luZG93LXg9Ii04IiBpbmtzY2FwZTp3aW5kb3cteT0iLTgiIGlua3NjYXBlOnpvb209IjEyLjIxMzU1MyIgb2JqZWN0dG9sZXJhbmNlPSIxMCIgcGFnZWNvbG9yPSIjZmZmZmZmIiBzaG93Z3JpZD0iZmFsc2UiPiYjeGE7CTwvc29kaXBvZGk6bmFtZWR2aWV3PiYjeGE7PGcgaWQ9Imc5NzI0NCIgdHJhbnNmb3JtPSJ0cmFuc2xhdGUoLTAuNzg3NDAxNTYsLTAuNzU0NSkiPiYjeGE7CTx0aXRsZSBpZD0idGl0bGU5NzIwNCI+UGFnZS0xPC90aXRsZT4mI3hhOwk8ZyBpZD0iZ3JvdXAzNjQxLTEiIHRyYW5zZm9ybT0idHJhbnNsYXRlKDAsLTAuNzUpIj4mI3hhOwkJPHRpdGxlIGlkPSJ0aXRsZTk3MjA2Ij5Db3NtbyBEQi42Mjg8L3RpdGxlPiYjeGE7CQk8ZyBpZD0ic2hhcGUzNjQyLTIiIHRyYW5zZm9ybT0idHJhbnNsYXRlKDguNjYwODMsLTMuODI0MjYpIj4mI3hhOwkJCTx0aXRsZSBpZD0idGl0bGU5NzIwOCI+U2hlZXQuMzY0MjwvdGl0bGU+JiN4YTsJCQk8cGF0aCBpZD0icGF0aDk3MjEwIiBpbmtzY2FwZTpjb25uZWN0b3ItY3VydmF0dXJlPSIwIiBzdHlsZT0iZmlsbDojNTlCNEQ5OyIgZD0iTTM4LjU4LDI4LjQ5YzIuMzYsMTAuMDItMy43MSwyMC4wMy0xMy43MiwyMi4zOSAgICAgUzQuOTUsNDcuMjgsMi40NywzNy4yN0MwLDI3LjI2LDYuMTksMTcuMjUsMTYuMiwxNC44OGwwLDBDMjYuMDksMTIuNDEsMzYuMTEsMTguNDgsMzguNTgsMjguNDlMMzguNTgsMjguNDl6Ii8+JiN4YTsJCTwvZz4mI3hhOwkJPGcgaWQ9InNoYXBlMzY0My00IiB0cmFuc2Zvcm09InRyYW5zbGF0ZSg5Ljg5ODEsLTExLjgxMDIpIj4mI3hhOwkJCTx0aXRsZSBpZD0idGl0bGU5NzIxMyI+U2hlZXQuMzY0MzwvdGl0bGU+JiN4YTsJCQk8cGF0aCBpZD0icGF0aDk3MjE1IiBpbmtzY2FwZTpjb25uZWN0b3ItY3VydmF0dXJlPSIwIiBzdHlsZT0iZmlsbDojRkZGRkZGO2ZpbGwtb3BhY2l0eTowLjU7IiBkPSJNMTYuNjUsNDguMjkgICAgIGMwLTIuNy0yLjI1LTQuOTUtNC45NS00Ljk1bDAsMGgtMC43OWMwLjY4LTIuNTktMS4wMS01LjI4LTMuNi01Ljk2Yy0wLjM0LTAuMTEtMC43OS0wLjExLTEuMjQtMC4xMUgxLjEyICAgICBDMCw0MywxLjY5LDQ4Ljg1LDUuNjIsNTMuMTNoNi4xOUMxNC41MSw1My4yNCwxNi42NSw1MS4xLDE2LjY1LDQ4LjI5TDE2LjY1LDQ4LjI5eiIvPiYjeGE7CQk8L2c+JiN4YTsJCTxnIGlkPSJzaGFwZTM2NDQtNiIgdHJhbnNmb3JtPSJ0cmFuc2xhdGUoMjUuNTMyNiwtMjUuODcpIj4mI3hhOwkJCTx0aXRsZSBpZD0idGl0bGU5NzIxOCI+U2hlZXQuMzY0NDwvdGl0bGU+JiN4YTsJCQk8cGF0aCBpZD0icGF0aDk3MjIwIiBpbmtzY2FwZTpjb25uZWN0b3ItY3VydmF0dXJlPSIwIiBzdHlsZT0iZmlsbDojRkZGRkZGO2ZpbGwtb3BhY2l0eTowLjU7IiBkPSJNNy4yLDQxLjk5ICAgICBjMCwwLjM0LDAsMC41NiwwLjExLDAuOUg1LjE3QzIuMzYsNDIuODksMCw0NS4xNCwwLDQ4LjA3YzAsMi45MiwyLjI1LDUuMTcsNS4xNyw1LjE3aDE2Ljk5Yy0wLjU2LTYuMy00LjE2LTExLjctOS41Ni0xNC42MiAgICAgaC0yLjAzQzguNjYsMzguNjIsNy4yLDQwLjA4LDcuMiw0MS45OXoiLz4mI3hhOwkJPC9nPiYjeGE7CQk8ZyBpZD0ic2hhcGUzNjQ1LTgiIHRyYW5zZm9ybT0idHJhbnNsYXRlKDMwLjQ4MTYsLTcuOTg1OTYpIj4mI3hhOwkJCTx0aXRsZSBpZD0idGl0bGU5NzIyMyI+U2hlZXQuMzY0NTwvdGl0bGU+JiN4YTsJCQk8cGF0aCBpZD0icGF0aDk3MjI1IiBpbmtzY2FwZTpjb25uZWN0b3ItY3VydmF0dXJlPSIwIiBzdHlsZT0iZmlsbDojRkZGRkZGO2ZpbGwtb3BhY2l0eTowLjU7IiBkPSJNMTcuMjEsMzguOTZINy4wOSAgICAgYy0yLjI1LDAtNC4xNywxLjc5LTQuMTcsNC4xNmMwLDAuNjcsMC4yMywxLjM1LDAuNDUsMi4wMmMtMi4yNSwwLjY4LTMuMzcsMy4wNC0yLjcsNS4xOGMwLjU3LDEuOCwyLjE0LDIuOTIsNC4wNSwyLjkyaDIuNyAgICAgQzEyLjgyLDUwLjQzLDE2LjUzLDQ1LjAzLDE3LjIxLDM4Ljk2eiIvPiYjeGE7CQk8L2c+JiN4YTsJCTxnIGlkPSJzaGFwZTM2NDYtMTAiIHRyYW5zZm9ybT0idHJhbnNsYXRlKDAuNzg3MzQ5LC0zNi41NTU1KSI+JiN4YTsJCQk8dGl0bGUgaWQ9InRpdGxlOTcyMjgiPlNoZWV0LjM2NDY8L3RpdGxlPiYjeGE7CQkJPHBhdGggaWQ9InBhdGg5NzIzMCIgaW5rc2NhcGU6Y29ubmVjdG9yLWN1cnZhdHVyZT0iMCIgc3R5bGU9ImZpbGw6I0I4RDQzMjsiIGQ9Ik03LjY1LDUzLjI0Yy0wLjM0LDAtMC41Ni0wLjIyLTAuNTYtMC41NiAgICAgYzAtMy42LTIuOTMtNi41My02LjUzLTYuNTNDMC4yMiw0Ni4yNywwLDQ1LjkzLDAsNDUuN2MwLTAuMjIsMC4yMi0wLjU2LDAuNTYtMC41NmMzLjYsMCw2LjUzLTIuOTIsNi41My02LjUyICAgICBjMC0wLjM0LDAuMjItMC41NiwwLjU2LTAuNTZzMC41NiwwLjIyLDAuNTYsMC41NmMwLDMuNiwyLjkzLDYuNTIsNi41Miw2LjUyYzAuMzQsMCwwLjU3LDAuMjMsMC41NywwLjU2ICAgICBjMCwwLjM0LTAuMjMsMC41Ny0wLjU3LDAuNTdjLTMuNTksMC02LjUyLDIuOTItNi41Miw2LjUyQzguMjEsNTMuMDIsNy45OSw1My4yNCw3LjY1LDUzLjI0eiIvPiYjeGE7CQk8L2c+JiN4YTsJCTxnIGlkPSJzaGFwZTM2NDctMTIiIHRyYW5zZm9ybT0idHJhbnNsYXRlKDQzLjg2NjYpIj4mI3hhOwkJCTx0aXRsZSBpZD0idGl0bGU5NzIzMyI+U2hlZXQuMzY0NzwvdGl0bGU+JiN4YTsJCQk8cGF0aCBpZD0icGF0aDk3MjM1IiBpbmtzY2FwZTpjb25uZWN0b3ItY3VydmF0dXJlPSIwIiBzdHlsZT0iZmlsbDojMjZCQ0VFOyIgZD0iTTQuNjEsNTMuMjRjLTAuMjIsMC0wLjM0LTAuMTEtMC4zNC0wLjM0ICAgICBjMC0yLjEzLTEuOC0zLjgyLTMuOTMtMy44MkMwLjExLDQ5LjA4LDAsNDguOTcsMCw0OC43NGMwLTAuMjIsMC4xMS0wLjM0LDAuMzQtMC4zNGwwLDBjMi4xMywwLDMuODItMS42OCwzLjkzLTMuODIgICAgIGMwLTAuMjMsMC4xMi0wLjM0LDAuMzQtMC4zNGMwLjIzLDAsMC4zNCwwLjExLDAuMzQsMC4zNGMwLDIuMTQsMS44LDMuODIsMy45NCwzLjgyYzAuMjIsMCwwLjMzLDAuMTIsMC4zMywwLjM0ICAgICBjMCwwLjIzLTAuMTEsMC4zNC0wLjMzLDAuMzRsMCwwYy0yLjE0LDAtMy44MywxLjY5LTMuOTQsMy44MkM0Ljk1LDUzLjAyLDQuODQsNTMuMjQsNC42MSw1My4yNEw0LjYxLDUzLjI0eiIvPiYjeGE7CQk8L2c+JiN4YTsJCTxnIGlkPSJzaGFwZTM2NDgtMTQiIHRyYW5zZm9ybT0idHJhbnNsYXRlKDAsLTUuMDYxNTMpIj4mI3hhOwkJCTx0aXRsZSBpZD0idGl0bGU5NzIzOCI+U2hlZXQuMzY0ODwvdGl0bGU+JiN4YTsJCQk8cGF0aCBpZD0icGF0aDk3MjQwIiBpbmtzY2FwZTpjb25uZWN0b3ItY3VydmF0dXJlPSIwIiBzdHlsZT0iZmlsbDojMEYwRjBGOyIgZD0iTTU2LjI0LDE3LjQ3Yy0xLjgtMi45Mi02LjE5LTMuNi0xMi45NC0xLjkxICAgICBjLTIuMDIsMC41Ni00LjE2LDEuMTItNi4wNywxLjkxYzEuMjQsMC42OCwyLjQ3LDEuMzUsMy42LDIuMjVjMS4xMi0wLjM0LDIuMjUtMC42NywzLjI2LTEuMDFjMS44LTAuNDUsMy42LTAuNjgsNS40LTAuNzkgICAgIGMyLjE0LDAsMy4zNywwLjU2LDMuODIsMS4yNGMwLjY4LDEuMTIsMCwzLjk0LTMuODIsOC40M2MtMC42NywwLjc5LTEuNDYsMS41OC0yLjI1LDIuMzdjLTQuMjcsNC4wNS04Ljg4LDcuNjUtMTMuOTUsMTAuNjggICAgIGMtNS4wNiwzLjE1LTEwLjM0LDUuNzQtMTUuOTcsNy41NGMtNi43NSwyLjE0LTExLjM2LDIuMTQtMTIuMzcsMC40NWMtMS4wMS0xLjY5LDEuMDEtNS44NSw2LjA3LTEwLjggICAgIGMtMC4zMy0xLjQ2LTAuNDUtMi45Mi0wLjQ1LTQuMjdDMi41OSw0MC43NSwwLDQ3LjA1LDIuMDIsNTAuNDNjMS4xMywxLjgsMy40OSwyLjgxLDYuODcsMi44MWM0LjA1LTAuMjIsOC4wOS0xLjAxLDExLjkyLTIuNTkgICAgIGM0Ljk1LTEuOTEsOS42Ny00LjI3LDE0LjA2LTcuMDhjNC41LTIuNyw4Ljc3LTUuODUsMTIuNzEtOS40NWMxLjU3LTEuMzUsMy4wNC0yLjgxLDQuMzktNC4zOSAgICAgQzU2LjU4LDI0LjU2LDU4LjA0LDIwLjI4LDU2LjI0LDE3LjQ3eiIvPiYjeGE7CQk8L2c+JiN4YTsJPC9nPiYjeGE7PC9nPiYjeGE7PC9zdmc+;" vertex="1" parent="1">
          <mxGeometry x="125" y="259" width="56" height="52" as="geometry" />
        </mxCell>
        <mxCell id="e_ERtWOM5ls1ba6LLizI-4" value="&lt;font style=&quot;font-size: 15px;&quot;&gt;Azure CosmosDB&lt;/font&gt;" style="text;html=1;align=center;verticalAlign=middle;whiteSpace=wrap;rounded=1;fillColor=#f8cecc;strokeColor=#b85450;" vertex="1" parent="1">
          <mxGeometry x="35" y="267" width="80" height="40" as="geometry" />
        </mxCell>
        <mxCell id="e_ERtWOM5ls1ba6LLizI-6" value="" style="shape=image;verticalLabelPosition=bottom;labelBackgroundColor=#ffffff;verticalAlign=top;aspect=fixed;imageAspect=0;image=data:image/svg+xml,PHN2ZyB4bWxuczpjYz0iaHR0cDovL2NyZWF0aXZlY29tbW9ucy5vcmcvbnMjIiB4bWxuczpkYz0iaHR0cDovL3B1cmwub3JnL2RjL2VsZW1lbnRzLzEuMS8iIHhtbG5zOmlua3NjYXBlPSJodHRwOi8vd3d3Lmlua3NjYXBlLm9yZy9uYW1lc3BhY2VzL2lua3NjYXBlIiB4bWxuczpyZGY9Imh0dHA6Ly93d3cudzMub3JnLzE5OTkvMDIvMjItcmRmLXN5bnRheC1ucyMiIHhtbG5zOnNvZGlwb2RpPSJodHRwOi8vc29kaXBvZGkuc291cmNlZm9yZ2UubmV0L0RURC9zb2RpcG9kaS0wLmR0ZCIgeG1sbnM6c3ZnPSJodHRwOi8vd3d3LnczLm9yZy8yMDAwL3N2ZyIgeG1sbnM9Imh0dHA6Ly93d3cudzMub3JnLzIwMDAvc3ZnIiB4bWxuczp4bGluaz0iaHR0cDovL3d3dy53My5vcmcvMTk5OS94bGluayIgdmVyc2lvbj0iMS4xIiBpZD0ic3ZnMTM5Mzg4IiBpbmtzY2FwZTp2ZXJzaW9uPSIwLjkyLjMgKDI0MDU1NDYsIDIwMTgtMDMtMTEpIiBzb2RpcG9kaTpkb2NuYW1lPSJhenVyZV92bS5zdmciIHg9IjBweCIgeT0iMHB4IiB2aWV3Qm94PSIwIDAgNDIuMjIgMzkuMyIgc3R5bGU9ImVuYWJsZS1iYWNrZ3JvdW5kOm5ldyAwIDAgNDIuMjIgMzkuMzsiIHhtbDpzcGFjZT0icHJlc2VydmUiPiYjeGE7PHNvZGlwb2RpOm5hbWVkdmlldyBib3JkZXJjb2xvcj0iIzY2NjY2NiIgYm9yZGVyb3BhY2l0eT0iMSIgZml0LW1hcmdpbi1ib3R0b209IjAiIGZpdC1tYXJnaW4tbGVmdD0iMCIgZml0LW1hcmdpbi1yaWdodD0iMCIgZml0LW1hcmdpbi10b3A9IjAiIGdyaWR0b2xlcmFuY2U9IjEwIiBndWlkZXRvbGVyYW5jZT0iMTAiIGlkPSJuYW1lZHZpZXcxMzkzOTAiIGlua3NjYXBlOmN1cnJlbnQtbGF5ZXI9InN2ZzEzOTM4OCIgaW5rc2NhcGU6Y3g9IjI4LjE0NDg0NyIgaW5rc2NhcGU6Y3k9IjI2LjIwMjY0OCIgaW5rc2NhcGU6cGFnZW9wYWNpdHk9IjAiIGlua3NjYXBlOnBhZ2VzaGFkb3c9IjIiIGlua3NjYXBlOndpbmRvdy1oZWlnaHQ9IjEwMTciIGlua3NjYXBlOndpbmRvdy1tYXhpbWl6ZWQ9IjEiIGlua3NjYXBlOndpbmRvdy13aWR0aD0iMTkyMCIgaW5rc2NhcGU6d2luZG93LXg9Ii04IiBpbmtzY2FwZTp3aW5kb3cteT0iLTgiIGlua3NjYXBlOnpvb209IjE2LjU0NzQ4IiBvYmplY3R0b2xlcmFuY2U9IjEwIiBwYWdlY29sb3I9IiNmZmZmZmYiIHNob3dncmlkPSJmYWxzZSI+JiN4YTsJPC9zb2RpcG9kaTpuYW1lZHZpZXc+JiN4YTs8ZyBpZD0iZzEzOTM4NiIgdHJhbnNmb3JtPSJ0cmFuc2xhdGUoMCwtMC4wMDE3OCkiPiYjeGE7CTx0aXRsZSBpZD0idGl0bGUxMzkzNTEiPlBhZ2UtMTwvdGl0bGU+JiN4YTsJPGcgaWQ9Imdyb3VwOTY2NC0xIj4mI3hhOwkJPHRpdGxlIGlkPSJ0aXRsZTEzOTM1MyI+QXp1cmUgVk08L3RpdGxlPiYjeGE7CQk8ZyBpZD0ic2hhcGU5NjY1LTIiIHRyYW5zZm9ybT0idHJhbnNsYXRlKDIuOTU1MjEsLTEwLjMwOTQpIj4mI3hhOwkJCTx0aXRsZSBpZD0idGl0bGUxMzkzNTUiPlNoZWV0Ljk2NjU8L3RpdGxlPiYjeGE7CQkJPHBhdGggaWQ9InBhdGgxMzkzNTciIGlua3NjYXBlOmNvbm5lY3Rvci1jdXJ2YXR1cmU9IjAiIHN0eWxlPSJmaWxsOiMwMEJCRjE7IiBkPSJNMzcuMzMsMTIuOTdWMzkuM0gwVjEyLjk3bDM3LjM5LTAuMDggICAgIEwzNy4zMywxMi45N3oiLz4mI3hhOwkJPC9nPiYjeGE7CQk8ZyBpZD0ic2hhcGU5NjY2LTQiIHRyYW5zZm9ybT0idHJhbnNsYXRlKDcuMTc2OTMpIj4mI3hhOwkJCTx0aXRsZSBpZD0idGl0bGUxMzkzNjAiPlNoZWV0Ljk2NjY8L3RpdGxlPiYjeGE7CQkJPHBhdGggaWQ9InBhdGgxMzkzNjIiIGlua3NjYXBlOmNvbm5lY3Rvci1jdXJ2YXR1cmU9IjAiIHN0eWxlPSJmaWxsOiM5MTkxOTE7IiBkPSJNMjAuMjYsMzEuMjdjLTEuMDUsMC0xLjA1LDAtMS4wNSwwICAgICBjLTkuOTcsMC05Ljk3LDAtOS45NywwYy0wLjU2LDAtMC41NiwwLTAuNTYsMGMxLjM3LDQuODMtMC41LDUuNTQtOC42OCw1LjU0YzAsMi40OSwwLDIuNDksMCwyLjQ5YzEwLjQ4LDAsMTAuNDgsMCwxMC40OCwwICAgICBjNy41OSwwLDcuNTksMCw3LjU5LDBjOS43OSwwLDkuNzksMCw5Ljc5LDBjMC0yLjQ5LDAtMi40OSwwLTIuNDlDMTkuNzEsMzYuODEsMTguODksMzYuMSwyMC4yNiwzMS4yN3oiLz4mI3hhOwkJPC9nPiYjeGE7CQk8ZyBpZD0ic2hhcGU5NjY3LTYiIHRyYW5zZm9ybT0idHJhbnNsYXRlKDAsLTguMDI4MjIpIj4mI3hhOwkJCTx0aXRsZSBpZD0idGl0bGUxMzkzNjUiPlNoZWV0Ljk2Njc8L3RpdGxlPiYjeGE7CQkJPHBhdGggaWQ9InBhdGgxMzkzNjciIGlua3NjYXBlOmNvbm5lY3Rvci1jdXJ2YXR1cmU9IjAiIHN0eWxlPSJmaWxsOiNDNUM1QzU7IiBkPSJNMzkuNjMsOC4wM2MtMzcuMjYsMC0zNy4yNiwwLTM3LjI2LDAgICAgIEMxLjA2LDguMDMsMCw5LjE5LDAsMTAuNTFjMCwyNi40MSwwLDI2LjQxLDAsMjYuNDFjMCwxLjMyLDEuMDYsMi4zOCwyLjM3LDIuMzhjMzcuMjYsMCwzNy4yNiwwLDM3LjI2LDAgICAgIGMxLjI5LDAsMi41OS0xLjA2LDIuNTktMi4zOGMwLTI2LjQxLDAtMjYuNDEsMC0yNi40MUM0Mi4yMiw5LjE5LDQwLjkyLDguMDMsMzkuNjMsOC4wM3ogTTM5LDExLjMzYzAsMjQuNjksMCwyNC42OSwwLDI0LjY5ICAgICBjLTM1Ljc1LDAtMzUuNzUsMC0zNS43NSwwYzAtMjQuNjksMC0yNC42OSwwLTI0LjY5YzM1LjgzLTAuMDgsMzUuODMtMC4wOCwzNS44My0wLjA4TDM5LDExLjMzeiIvPiYjeGE7CQk8L2c+JiN4YTsJCTxnIGlkPSJzaGFwZTk2NjgtOCIgdHJhbnNmb3JtPSJ0cmFuc2xhdGUoMTMuNTA5NSwtMjQuMDg0NykiPiYjeGE7CQkJPHRpdGxlIGlkPSJ0aXRsZTEzOTM3MCI+U2hlZXQuOTY2ODwvdGl0bGU+JiN4YTsJCQk8cGF0aCBpZD0icGF0aDEzOTM3MiIgaW5rc2NhcGU6Y29ubmVjdG9yLWN1cnZhdHVyZT0iMCIgc3R5bGU9ImZpbGw6I0U2RjhGRTsiIGQ9Ik03LjYsMzAuNDJjLTAuMDgsMC0wLjA4LDAtMC4xNiwwICAgICBjLTcuMzMsNC4yNS03LjMzLDQuMjUtNy4zMyw0LjI1QzAsMzQuNjcsMCwzNC43NSwwLDM0LjgzczAsMC4xNiwwLjExLDAuMjRjNy40MSw0LjIzLDcuNDEsNC4yMyw3LjQxLDQuMjNINy42ICAgICBjMC4xLDAsMC4xLDAsMC4xOCwwYzcuMzQtNC4yMyw3LjM0LTQuMjMsNy4zNC00LjIzYzAuMDgsMCwwLjA4LTAuMDgsMC4wOC0wLjE2YzAtMC4wOCwwLTAuMTYtMC4wOC0wLjI0ICAgICBDNy43LDMwLjQyLDcuNywzMC40Miw3LjcsMzAuNDJINy42eiIvPiYjeGE7CQk8L2c+JiN4YTsJCTxnIGlkPSJzaGFwZTk2NjktMTAiIHRyYW5zZm9ybT0idHJhbnNsYXRlKDEyLjI0MywtMTMuNTIxMikiPiYjeGE7CQkJPHRpdGxlIGlkPSJ0aXRsZTEzOTM3NSI+U2hlZXQuOTY2OTwvdGl0bGU+JiN4YTsJCQk8cGF0aCBpZD0icGF0aDEzOTM3NyIgaW5rc2NhcGU6Y29ubmVjdG9yLWN1cnZhdHVyZT0iMCIgc3R5bGU9ImZpbGw6I0NDRjFGQzsiIGQ9Ik0wLjI2LDI1Ljc3Yy0wLjA4LDAtMC4wOCwwLTAuMTUsMCAgICAgQzAsMjUuNzcsMCwyNS44OCwwLDI1Ljk2YzAsOC43NCwwLDguNzQsMCw4Ljc0YzAsMC4wOCwwLDAuMTYsMC4xMSwwLjI0YzcuNTksNC4yOCw3LjU5LDQuMjgsNy41OSw0LjI4ICAgICBjMCwwLjA4LDAuMDgsMC4wOCwwLjA4LDAuMDhjMC4wOCwwLDAuMDgsMCwwLjE2LTAuMDhjMCwwLDAuMDgtMC4wOCwwLjA4LTAuMTZjMC04Ljc0LDAtOC43NCwwLTguNzRjMC0wLjA4LTAuMDgtMC4xNi0wLjA4LTAuMTYgICAgIGMtNy42LTQuMzktNy42LTQuMzktNy42LTQuMzlTMC4yNiwyNS43NywwLjI2LDI1Ljc3eiIvPiYjeGE7CQk8L2c+JiN4YTsJCTxnIGlkPSJzaGFwZTk2NzAtMTIiIHRyYW5zZm9ybT0idHJhbnNsYXRlKDIxLjk1MywtMTMuNTIxMikiPiYjeGE7CQkJPHRpdGxlIGlkPSJ0aXRsZTEzOTM4MCI+U2hlZXQuOTY3MDwvdGl0bGU+JiN4YTsJCQk8cGF0aCBpZD0icGF0aDEzOTM4MiIgaW5rc2NhcGU6Y29ubmVjdG9yLWN1cnZhdHVyZT0iMCIgc3R5bGU9ImZpbGw6IzgwRERGODsiIGQ9Ik03LjM5LDI1Ljc3YzAsMC0wLjA4LDAtMC4wOCwwLjExICAgICBjLTcuMTUsNC4yOC03LjE1LDQuMjgtNy4xNSw0LjI4QzAuMDgsMzAuMjQsMCwzMC4zMiwwLDMwLjRjMCw4LjY2LDAsOC42NiwwLDguNjZjMCwwLjA4LDAuMDgsMC4xNiwwLjE2LDAuMTYgICAgIGMwLDAuMDgsMCwwLjA4LDAuMDgsMC4wOGMwLDAsMC4wOCwwLDAuMDgtMC4wOGM3LjItNC4yOCw3LjItNC4yOCw3LjItNC4yOEM3LjYsMzQuODYsNy42LDM0Ljc4LDcuNiwzNC43YzAtOC42NiwwLTguNjYsMC04LjY2ICAgICBjMC0wLjA4LDAtMC4xNi0wLjA4LTAuMTZDNy40NywyNS43Nyw3LjQ3LDI1Ljc3LDcuMzksMjUuNzd6Ii8+JiN4YTsJCTwvZz4mI3hhOwk8L2c+JiN4YTs8L2c+JiN4YTs8L3N2Zz4=;" vertex="1" parent="1">
          <mxGeometry x="126.08" y="340" width="53.85" height="50" as="geometry" />
        </mxCell>
        <mxCell id="e_ERtWOM5ls1ba6LLizI-7" value="&lt;font style=&quot;font-size: 15px;&quot;&gt;Virtual Machine&lt;/font&gt;" style="text;html=1;align=center;verticalAlign=middle;whiteSpace=wrap;rounded=1;fillColor=#f8cecc;strokeColor=#b85450;" vertex="1" parent="1">
          <mxGeometry x="40" y="341" width="70" height="50" as="geometry" />
        </mxCell>
        <mxCell id="e_ERtWOM5ls1ba6LLizI-9" value="&lt;div&gt;&lt;font style=&quot;font-size: 15px;&quot;&gt;Data Lake Containing Separate Containers for each&amp;nbsp;&lt;/font&gt;&lt;/div&gt;" style="text;html=1;align=center;verticalAlign=middle;whiteSpace=wrap;rounded=1;fillColor=#f8cecc;strokeColor=#b85450;" vertex="1" parent="1">
          <mxGeometry x="490" y="206" width="150" height="71" as="geometry" />
        </mxCell>
        <mxCell id="e_ERtWOM5ls1ba6LLizI-10" value="" style="shape=image;verticalLabelPosition=bottom;labelBackgroundColor=#ffffff;verticalAlign=top;aspect=fixed;imageAspect=0;image=data:image/svg+xml,PHN2ZyB4bWxuczpkYz0iaHR0cDovL3B1cmwub3JnL2RjL2VsZW1lbnRzLzEuMS8iIHhtbG5zOmNjPSJodHRwOi8vY3JlYXRpdmVjb21tb25zLm9yZy9ucyMiIHhtbG5zOnJkZj0iaHR0cDovL3d3dy53My5vcmcvMTk5OS8wMi8yMi1yZGYtc3ludGF4LW5zIyIgeG1sbnM6c3ZnPSJodHRwOi8vd3d3LnczLm9yZy8yMDAwL3N2ZyIgeG1sbnM9Imh0dHA6Ly93d3cudzMub3JnLzIwMDAvc3ZnIiB4bWxuczpzb2RpcG9kaT0iaHR0cDovL3NvZGlwb2RpLnNvdXJjZWZvcmdlLm5ldC9EVEQvc29kaXBvZGktMC5kdGQiIHhtbG5zOmlua3NjYXBlPSJodHRwOi8vd3d3Lmlua3NjYXBlLm9yZy9uYW1lc3BhY2VzL2lua3NjYXBlIiB2ZXJzaW9uPSIxLjEiIGlkPSJzdmc1NjAxOCIgaW5rc2NhcGU6dmVyc2lvbj0iMC45Mi4zICgyNDA1NTQ2LCAyMDE4LTAzLTExKSIgc29kaXBvZGk6ZG9jbmFtZT0iYXp1cmVfY29udGFpbmVyLnN2ZyIgeD0iMHB4IiB5PSIwcHgiIHZpZXdCb3g9IjAgMCA2NS41MiA0OC40OSIgeG1sOnNwYWNlPSJwcmVzZXJ2ZSIgd2lkdGg9IjY1LjUxOTk5NyIgaGVpZ2h0PSI0OC40OTAwMDIiPjxtZXRhZGF0YSBpZD0ibWV0YWRhdGE1NTM4Ij48cmRmOlJERj48Y2M6V29yayByZGY6YWJvdXQ9IiI+PGRjOmZvcm1hdD5pbWFnZS9zdmcreG1sPC9kYzpmb3JtYXQ+PGRjOnR5cGUgcmRmOnJlc291cmNlPSJodHRwOi8vcHVybC5vcmcvZGMvZGNtaXR5cGUvU3RpbGxJbWFnZSIvPjxkYzp0aXRsZS8+PC9jYzpXb3JrPjwvcmRmOlJERj48L21ldGFkYXRhPjxkZWZzIGlkPSJkZWZzNTUzNiIvPiYjeGE7PGZpbHRlciBpZD0iZmlsdGVyXzIiPiYjeGE7CTxmZUdhdXNzaWFuQmx1ciBpZD0iZmVHYXVzc2lhbkJsdXI1NTgzOSIgc3RkRGV2aWF0aW9uPSIyIi8+JiN4YTs8L2ZpbHRlcj4mI3hhOzxzb2RpcG9kaTpuYW1lZHZpZXcgYm9yZGVyY29sb3I9IiM2NjY2NjYiIGJvcmRlcm9wYWNpdHk9IjEiIGZpdC1tYXJnaW4tYm90dG9tPSIwIiBmaXQtbWFyZ2luLWxlZnQ9IjAiIGZpdC1tYXJnaW4tcmlnaHQ9IjAiIGZpdC1tYXJnaW4tdG9wPSIwIiBncmlkdG9sZXJhbmNlPSIxMCIgZ3VpZGV0b2xlcmFuY2U9IjEwIiBpZD0ibmFtZWR2aWV3NTYwMjAiIGlua3NjYXBlOmN1cnJlbnQtbGF5ZXI9InN2ZzU2MDE4IiBpbmtzY2FwZTpjeD0iLTMuNDYzNzEzOSIgaW5rc2NhcGU6Y3k9IjIwLjQ1NjkyNyIgaW5rc2NhcGU6cGFnZW9wYWNpdHk9IjAiIGlua3NjYXBlOnBhZ2VzaGFkb3c9IjIiIGlua3NjYXBlOndpbmRvdy1oZWlnaHQ9IjEwMTciIGlua3NjYXBlOndpbmRvdy1tYXhpbWl6ZWQ9IjEiIGlua3NjYXBlOndpbmRvdy13aWR0aD0iMTkyMCIgaW5rc2NhcGU6d2luZG93LXg9Ii04IiBpbmtzY2FwZTp3aW5kb3cteT0iLTgiIGlua3NjYXBlOnpvb209IjguOTExNjU1NyIgb2JqZWN0dG9sZXJhbmNlPSIxMCIgcGFnZWNvbG9yPSIjZmZmZmZmIiBzaG93Z3JpZD0iZmFsc2UiPiYjeGE7CTwvc29kaXBvZGk6bmFtZWR2aWV3PiYjeGE7JiN4YTs8cGF0aCBpZD0icGF0aDU1ODUyIiBpbmtzY2FwZTpjb25uZWN0b3ItY3VydmF0dXJlPSIwIiBzdHlsZT0iZmlsbDojODA0OTk4IiBkPSJNIDMwLjAxLDEyLjMyIDE5LjkyLDE2LjI1IFYgMCBsIDEwLjA5LDMuNTQgeiIvPiYjeGE7JiN4YTs8cGF0aCBpZD0icGF0aDU1ODYwIiBpbmtzY2FwZTpjb25uZWN0b3ItY3VydmF0dXJlPSIwIiBzdHlsZT0iZmlsbDojODA0OTk4IiBkPSJtIDEwLjg4LDIuNzUgdiAxMC42MSBsIDcuNDcsMi44OSBWIDAuMTMgWiBtIDAuNzksOS44MyAtMC40LC0wLjEzIFYgMy42NyBsIDAuNCwtMC4xMyAwLjM5LC0wLjE0IDAuMzksLTAuMTMgdiA5LjU3IGwgLTAuMzksLTAuMTMgeiBtIDEuOTYsMC41MiAtMC41MiwtMC4xMyBWIDMuMTQgbCAwLjUyLC0wLjEzIDAuNTMsLTAuMTMgMC41MiwtMC4xMyB2IDEwLjc0IGwgLTAuNTIsLTAuMTMgeiBtIDIuMzYsMC43OSAtMC42NSwtMC4yNiBWIDIuNDkgbCAwLjY1LC0wLjEzIDAuNjYsLTAuMjcgMC43OCwtMC4yNiB2IDEyLjQ1IGwgLTAuNzgsLTAuMjYgeiIvPiYjeGE7JiN4YTs8cGF0aCBpZD0icGF0aDU1ODY4IiBpbmtzY2FwZTpjb25uZWN0b3ItY3VydmF0dXJlPSIwIiBzdHlsZT0iZmlsbDojODA0OTk4IiBkPSJNIDUzLjQ3LDEyLjMyIDQzLjM4LDE2LjI1IFYgMCBsIDEwLjA5LDMuNTQgeiIvPiYjeGE7JiN4YTs8cGF0aCBpZD0icGF0aDU1ODc2IiBpbmtzY2FwZTpjb25uZWN0b3ItY3VydmF0dXJlPSIwIiBzdHlsZT0iZmlsbDojODA0OTk4IiBkPSJtIDM0LjMzLDIuNzUgdiAxMC42MSBsIDcuNDcsMi44OSBWIDAuMTMgWiBtIDAuNzksOS44MyAtMC40LC0wLjEzIFYgMy42NyBMIDM1LjEyLDMuNTQgMzUuNTEsMy40IDM1LjksMy4yNyB2IDkuNTcgbCAtMC4zOSwtMC4xMyB6IG0gMS45NiwwLjUyIC0wLjUyLC0wLjEzIFYgMy4xNCBsIDAuNTIsLTAuMTMgMC41MywtMC4xMyAwLjUyLC0wLjEzIHYgMTAuNzQgbCAtMC41MiwtMC4xMyB6IG0gMi4zNiwwLjc5IC0wLjY1LC0wLjI2IFYgMi40OSBMIDM5LjQ0LDIuMzYgNDAuMSwyLjA5IDQwLjg4LDEuODMgViAxNC4yOCBMIDQwLjEsMTQuMDIgWiIvPiYjeGE7JiN4YTs8cGF0aCBpZD0icGF0aDU1ODg0IiBpbmtzY2FwZTpjb25uZWN0b3ItY3VydmF0dXJlPSIwIiBzdHlsZT0iZmlsbDojODA0OTk4IiBkPSJNIDMwLjAxLDQ0LjU2IDE5LjkyLDQ4LjQ5IFYgMzIuMjQgbCAxMC4wOSwzLjU0IHoiLz4mI3hhOyYjeGE7PHBhdGggaWQ9InBhdGg1NTg5MiIgaW5rc2NhcGU6Y29ubmVjdG9yLWN1cnZhdHVyZT0iMCIgc3R5bGU9ImZpbGw6IzgwNDk5OCIgZD0iTSAxMC44OCwzNC45OSBWIDQ1LjYgbCA3LjQ3LDIuODkgViAzMi4zNyBaIG0gMC43OSw5LjgzIC0wLjQsLTAuMTMgdiAtOC43OCBsIDAuNCwtMC4xMyAwLjM5LC0wLjE0IDAuMzksLTAuMTMgdiA5LjU3IGwgLTAuMzksLTAuMTMgeiBtIDEuOTYsMC41MiAtMC41MiwtMC4xMyB2IC05LjgzIGwgMC41MiwtMC4xMyAwLjUzLC0wLjEzIDAuNTIsLTAuMTMgViA0NS43MyBMIDE0LjE2LDQ1LjYgWiBtIDIuMzYsMC43OSAtMC42NSwtMC4yNiBWIDM0LjczIGwgMC42NSwtMC4xMyAwLjY2LC0wLjI3IDAuNzgsLTAuMjYgdiAxMi40NSBsIC0wLjc4LC0wLjI2IHoiLz4mI3hhOyYjeGE7PHBhdGggaWQ9InBhdGg1NTkwMCIgaW5rc2NhcGU6Y29ubmVjdG9yLWN1cnZhdHVyZT0iMCIgc3R5bGU9ImZpbGw6IzgwNDk5OCIgZD0iTSA1My40Nyw0NC41NiA0My4zOCw0OC40OSBWIDMyLjI0IGwgMTAuMDksMy41NCB6Ii8+JiN4YTsmI3hhOzxwYXRoIGlkPSJwYXRoNTU5MDgiIGlua3NjYXBlOmNvbm5lY3Rvci1jdXJ2YXR1cmU9IjAiIHN0eWxlPSJmaWxsOiM4MDQ5OTgiIGQ9Ik0gMzQuMzMsMzQuOTkgViA0NS42IGwgNy40NywyLjg5IFYgMzIuMzcgWiBtIDAuNzksOS44MyAtMC40LC0wLjEzIHYgLTguNzggbCAwLjQsLTAuMTMgMC4zOSwtMC4xNCAwLjM5LC0wLjEzIHYgOS41NyBsIC0wLjM5LC0wLjEzIHogbSAxLjk2LDAuNTIgLTAuNTIsLTAuMTMgdiAtOS44MyBsIDAuNTIsLTAuMTMgMC41MywtMC4xMyAwLjUyLC0wLjEzIFYgNDUuNzMgTCAzNy42MSw0NS42IFogbSAyLjM2LDAuNzkgLTAuNjUsLTAuMjYgViAzNC43MyBsIDAuNjUsLTAuMTMgMC42NiwtMC4yNyAwLjc4LC0wLjI2IFYgNDYuNTIgTCA0MC4xLDQ2LjI2IFoiLz4mI3hhOyYjeGE7PHBhdGggaWQ9InBhdGg1NTkxNiIgaW5rc2NhcGU6Y29ubmVjdG9yLWN1cnZhdHVyZT0iMCIgc3R5bGU9ImZpbGw6IzgwNDk5OCIgZD0ibSA0Mi40NiwyOC40NCAtOS45NiwzLjggViAxNi4xMiBsIDkuOTYsMy41NCB6Ii8+JiN4YTsmI3hhOzxwYXRoIGlkPSJwYXRoNTU5MjQiIGlua3NjYXBlOmNvbm5lY3Rvci1jdXJ2YXR1cmU9IjAiIHN0eWxlPSJmaWxsOiM4MDQ5OTgiIGQ9Im0gMjMuMzMsMTguNzQgdiAxMC42MSBsIDcuNDcsMi44OSBWIDE2LjEyIFogbSAwLjc5LDkuODMgLTAuNCwtMC4xMyB2IC04Ljc4IGwgMC40LC0wLjEzIDAuMzksLTAuMTQgMC4zOSwtMC4xMyB2IDkuNTcgTCAyNC41MSwyOC43IFogbSAxLjk2LDAuNjUgLTAuNTIsLTAuMTMgdiAtOS44MyBsIDAuNTIsLTAuMTMgMC41MywtMC4xMyAwLjUyLC0wLjEzIHYgMTAuNzUgbCAtMC41MiwtMC4xNCB6IG0gMi4zNiwwLjc5IC0wLjY1LC0wLjI2IFYgMTguNjEgbCAwLjY1LC0wLjEzIDAuNjYsLTAuMjcgMC43OCwtMC4yNiBWIDMwLjQgTCAyOS4xLDMwLjE0IFoiLz4mI3hhOyYjeGE7PHBhdGggaWQ9InBhdGg1NTkzMiIgaW5rc2NhcGU6Y29ubmVjdG9yLWN1cnZhdHVyZT0iMCIgc3R5bGU9ImZpbGw6IzgwNDk5OCIgZD0ibSAxOS4xMywyOC40NCAtOS45NiwzLjggViAxNi4xMiBsIDkuOTYsMy41NCB6Ii8+JiN4YTsmI3hhOzxwYXRoIGlkPSJwYXRoNTU5NDAiIGlua3NjYXBlOmNvbm5lY3Rvci1jdXJ2YXR1cmU9IjAiIHN0eWxlPSJmaWxsOiM4MDQ5OTgiIGQ9Im0gMCwxOC43NCB2IDEwLjYxIGwgNy40NywyLjg5IFYgMTYuMTIgWiBtIDAuNzksOS44MyAtMC40LC0wLjEzIHYgLTguNzggbCAwLjQsLTAuMTMgMC4zOSwtMC4xNCAwLjM5LC0wLjEzIHYgOS41NyBMIDEuMTgsMjguNyBaIE0gMi43NSwyOS4yMiAyLjIzLDI5LjA5IFYgMTkuMjYgTCAyLjc1LDE5LjEzIDMuMjgsMTkgMy44LDE4Ljg3IFYgMjkuNjIgTCAzLjI4LDI5LjQ4IFogTSA1LjExLDMwLjAxIDQuNDYsMjkuNzUgViAxOC42MSBMIDUuMTEsMTguNDggNS43NywxOC4yMSA2LjU1LDE3Ljk1IFYgMzAuNCBMIDUuNzcsMzAuMTQgWiIvPiYjeGE7JiN4YTs8cGF0aCBpZD0icGF0aDU1OTQ4IiBpbmtzY2FwZTpjb25uZWN0b3ItY3VydmF0dXJlPSIwIiBzdHlsZT0iZmlsbDojODA0OTk4IiBkPSJtIDY1LjUyLDI4LjQ0IC05Ljk2LDMuOCBWIDE2LjEyIGwgOS45NiwzLjU0IHoiLz4mI3hhOyYjeGE7JiN4YTsmI3hhOyYjeGE7JiN4YTsmI3hhOyYjeGE7JiN4YTsmI3hhOyYjeGE7JiN4YTsmI3hhOyYjeGE7JiN4YTsmI3hhOzxwYXRoIGlkPSJwYXRoNTYwMTIiIGlua3NjYXBlOmNvbm5lY3Rvci1jdXJ2YXR1cmU9IjAiIHN0eWxlPSJmaWxsOiM4MDQ5OTgiIGQ9Im0gNDYuMzksMTguNzQgdiAxMC42MSBsIDcuNDcsMi44OSBWIDE2LjEyIFogbSAwLjc5LDkuODMgLTAuNCwtMC4xMyB2IC04Ljc4IGwgMC40LC0wLjEzIDAuMzksLTAuMTQgMC4zOSwtMC4xMyB2IDkuNTcgTCA0Ny41NywyOC43IFogbSAxLjk2LDAuNjUgLTAuNTIsLTAuMTMgdiAtOS44MyBsIDAuNTIsLTAuMTMgMC41MywtMC4xMyAwLjUyLC0wLjEzIHYgMTAuNzUgbCAtMC41MiwtMC4xNCB6IG0gMi4zNiwwLjc5IC0wLjY1LC0wLjI2IFYgMTguNjEgbCAwLjY1LC0wLjEzIDAuNjYsLTAuMjcgMC43OCwtMC4yNiBWIDMwLjQgbCAtMC43OCwtMC4yNiB6Ii8+JiN4YTs8L3N2Zz4=;" vertex="1" parent="1">
          <mxGeometry x="499.99999999999994" y="289" width="66" height="48" as="geometry" />
        </mxCell>
        <mxCell id="e_ERtWOM5ls1ba6LLizI-14" value="" style="shape=flexArrow;endArrow=classic;html=1;rounded=0;" edge="1" parent="1">
          <mxGeometry width="50" height="50" relative="1" as="geometry">
            <mxPoint x="190" y="290" as="sourcePoint" />
            <mxPoint x="280" y="290" as="targetPoint" />
            <Array as="points">
              <mxPoint x="220" y="290" />
            </Array>
          </mxGeometry>
        </mxCell>
        <mxCell id="e_ERtWOM5ls1ba6LLizI-15" value="" style="shape=flexArrow;endArrow=classic;html=1;rounded=0;" edge="1" parent="1">
          <mxGeometry width="50" height="50" relative="1" as="geometry">
            <mxPoint x="190" y="205.5" as="sourcePoint" />
            <mxPoint x="280" y="230" as="targetPoint" />
            <Array as="points">
              <mxPoint x="220" y="205.5" />
            </Array>
          </mxGeometry>
        </mxCell>
        <mxCell id="e_ERtWOM5ls1ba6LLizI-16" value="" style="shape=flexArrow;endArrow=classic;html=1;rounded=0;" edge="1" parent="1">
          <mxGeometry width="50" height="50" relative="1" as="geometry">
            <mxPoint x="200" y="372" as="sourcePoint" />
            <mxPoint x="290" y="360" as="targetPoint" />
            <Array as="points">
              <mxPoint x="240" y="370" />
            </Array>
          </mxGeometry>
        </mxCell>
        <mxCell id="e_ERtWOM5ls1ba6LLizI-17" value="&lt;font style=&quot;font-size: 14px;&quot;&gt;Countries &amp;amp; Metrics Data&lt;/font&gt;" style="text;html=1;align=center;verticalAlign=middle;whiteSpace=wrap;rounded=1;perimeterSpacing=1;fillColor=#dae8fc;strokeColor=#6c8ebf;" vertex="1" parent="1">
          <mxGeometry x="285" y="221" width="85" height="39" as="geometry" />
        </mxCell>
        <mxCell id="e_ERtWOM5ls1ba6LLizI-18" value="&lt;font style=&quot;font-size: 15px;&quot;&gt;Policy Data&lt;/font&gt;" style="text;html=1;align=center;verticalAlign=middle;whiteSpace=wrap;rounded=1;perimeterSpacing=1;fillColor=#dae8fc;strokeColor=#6c8ebf;" vertex="1" parent="1">
          <mxGeometry x="287.5" y="277" width="80" height="30" as="geometry" />
        </mxCell>
        <mxCell id="e_ERtWOM5ls1ba6LLizI-21" value="" style="shape=flexArrow;endArrow=classic;html=1;rounded=0;" edge="1" parent="1">
          <mxGeometry width="50" height="50" relative="1" as="geometry">
            <mxPoint x="380" y="288.41" as="sourcePoint" />
            <mxPoint x="470" y="288.41" as="targetPoint" />
            <Array as="points">
              <mxPoint x="410" y="288.41" />
            </Array>
          </mxGeometry>
        </mxCell>
        <mxCell id="e_ERtWOM5ls1ba6LLizI-22" value="" style="shape=flexArrow;endArrow=classic;html=1;rounded=0;" edge="1" parent="1">
          <mxGeometry width="50" height="50" relative="1" as="geometry">
            <mxPoint x="380" y="235.41" as="sourcePoint" />
            <mxPoint x="470" y="250" as="targetPoint" />
            <Array as="points">
              <mxPoint x="410" y="235.41" />
            </Array>
          </mxGeometry>
        </mxCell>
        <mxCell id="e_ERtWOM5ls1ba6LLizI-23" value="" style="shape=flexArrow;endArrow=classic;html=1;rounded=0;" edge="1" parent="1">
          <mxGeometry width="50" height="50" relative="1" as="geometry">
            <mxPoint x="390" y="352" as="sourcePoint" />
            <mxPoint x="480" y="340" as="targetPoint" />
            <Array as="points">
              <mxPoint x="430" y="350" />
            </Array>
          </mxGeometry>
        </mxCell>
        <mxCell id="e_ERtWOM5ls1ba6LLizI-24" value="" style="shape=image;verticalLabelPosition=bottom;labelBackgroundColor=#ffffff;verticalAlign=top;aspect=fixed;imageAspect=0;image=data:image/svg+xml,PHN2ZyB4bWxuczpkYz0iaHR0cDovL3B1cmwub3JnL2RjL2VsZW1lbnRzLzEuMS8iIHhtbG5zOmNjPSJodHRwOi8vY3JlYXRpdmVjb21tb25zLm9yZy9ucyMiIHhtbG5zOnJkZj0iaHR0cDovL3d3dy53My5vcmcvMTk5OS8wMi8yMi1yZGYtc3ludGF4LW5zIyIgeG1sbnM6c3ZnPSJodHRwOi8vd3d3LnczLm9yZy8yMDAwL3N2ZyIgeG1sbnM9Imh0dHA6Ly93d3cudzMub3JnLzIwMDAvc3ZnIiB4bWxuczpzb2RpcG9kaT0iaHR0cDovL3NvZGlwb2RpLnNvdXJjZWZvcmdlLm5ldC9EVEQvc29kaXBvZGktMC5kdGQiIHhtbG5zOmlua3NjYXBlPSJodHRwOi8vd3d3Lmlua3NjYXBlLm9yZy9uYW1lc3BhY2VzL2lua3NjYXBlIiB2ZXJzaW9uPSIxLjEiIGlkPSJzdmc1Njg2MSIgaW5rc2NhcGU6dmVyc2lvbj0iMC45Mi4zICgyNDA1NTQ2LCAyMDE4LTAzLTExKSIgc29kaXBvZGk6ZG9jbmFtZT0iYXp1cmVfZGF0YV9mYWN0b3J5LnN2ZyIgeD0iMHB4IiB5PSIwcHgiIHZpZXdCb3g9IjAgMCAxMDAuMSA5OS45IiB4bWw6c3BhY2U9InByZXNlcnZlIiB3aWR0aD0iMTAwLjEiIGhlaWdodD0iOTkuOTAwMDAyIj48bWV0YWRhdGEgaWQ9Im1ldGFkYXRhNjgyMyI+PHJkZjpSREY+PGNjOldvcmsgcmRmOmFib3V0PSIiPjxkYzpmb3JtYXQ+aW1hZ2Uvc3ZnK3htbDwvZGM6Zm9ybWF0PjxkYzp0eXBlIHJkZjpyZXNvdXJjZT0iaHR0cDovL3B1cmwub3JnL2RjL2RjbWl0eXBlL1N0aWxsSW1hZ2UiLz48ZGM6dGl0bGUvPjwvY2M6V29yaz48L3JkZjpSREY+PC9tZXRhZGF0YT48ZGVmcyBpZD0iZGVmczY4MjEiLz4mI3hhOzxmaWx0ZXIgaWQ9ImZpbHRlcl8yIj4mI3hhOwk8ZmVHYXVzc2lhbkJsdXIgaWQ9ImZlR2F1c3NpYW5CbHVyNTY4MTAiIHN0ZERldmlhdGlvbj0iMiIvPiYjeGE7PC9maWx0ZXI+JiN4YTs8c29kaXBvZGk6bmFtZWR2aWV3IGJvcmRlcmNvbG9yPSIjNjY2NjY2IiBib3JkZXJvcGFjaXR5PSIxIiBmaXQtbWFyZ2luLWJvdHRvbT0iMCIgZml0LW1hcmdpbi1sZWZ0PSIwIiBmaXQtbWFyZ2luLXJpZ2h0PSIwIiBmaXQtbWFyZ2luLXRvcD0iMCIgZ3JpZHRvbGVyYW5jZT0iMTAiIGd1aWRldG9sZXJhbmNlPSIxMCIgaWQ9Im5hbWVkdmlldzU2ODYzIiBpbmtzY2FwZTpjdXJyZW50LWxheWVyPSJzdmc1Njg2MSIgaW5rc2NhcGU6Y3g9Ii0yMi41MTIwNzIiIGlua3NjYXBlOmN5PSI1Ni44MTcyNzkiIGlua3NjYXBlOnBhZ2VvcGFjaXR5PSIwIiBpbmtzY2FwZTpwYWdlc2hhZG93PSIyIiBpbmtzY2FwZTp3aW5kb3ctaGVpZ2h0PSIxMDE3IiBpbmtzY2FwZTp3aW5kb3ctbWF4aW1pemVkPSIxIiBpbmtzY2FwZTp3aW5kb3ctd2lkdGg9IjE5MjAiIGlua3NjYXBlOndpbmRvdy14PSItOCIgaW5rc2NhcGU6d2luZG93LXk9Ii04IiBpbmtzY2FwZTp6b29tPSIzLjY5Njc5MDciIG9iamVjdHRvbGVyYW5jZT0iMTAiIHBhZ2Vjb2xvcj0iI2ZmZmZmZiIgc2hvd2dyaWQ9ImZhbHNlIj4mI3hhOwk8L3NvZGlwb2RpOm5hbWVkdmlldz4mI3hhOyYjeGE7PHBhdGggaWQ9InBhdGg1NjgyMyIgaW5rc2NhcGU6Y29ubmVjdG9yLWN1cnZhdHVyZT0iMCIgc3R5bGU9ImZpbGw6IzU5YjRkOSIgZD0iTSA5OS45LDU4Ljg2IFYgMzQuNjMgTCA3Mi40Nyw1OC40NiBoIC0wLjYgViAzNC42MyBMIDQ0LjQ0LDU4LjQ2IFYgOC42MSBDIDQ0LjQ0LDQuNCAzNS4wMywwLjIgMjIuNjIsMC4yIDEwLjIxLDAuMiAwLDQuMiAwLDguNjEgViA5OS45IEggMTAwLjEgWiBNIDIyLjYyLDEyLjYxIGMgLTkuMDEsMCAtMTYuMjEsLTIuMiAtMTYuMjEsLTQuNiAwLC0yLjQgNy4yLC00LjYxIDE2LjIxLC00LjYxIDkuMDEsMCAxNi4yMiwyLjAxIDE2LjIyLDQuNjEgLTAuMiwyLjQgLTcuNDEsNC42IC0xNi4yMiw0LjYgeiBNIDY5Ljg3LDgzLjY4IEggNTguODYgViA3Mi42NyBoIDExLjAxIHogbSAtMTkuNDIsMCBIIDM5LjQ0IFYgNzIuNjcgaCAxMS4wMSB6IG0gMjguMDMsMCBWIDcyLjY3IGggMTEuMDEgdiAxMS4wMSB6Ii8+JiN4YTsmI3hhOzxyZWN0IGlkPSJyZWN0NTY4MzEiIHg9IjAiIHk9IjguMDEwMDAwMiIgc3R5bGU9ImZpbGw6IzM5OTljNiIgd2lkdGg9IjIyLjIxOTk5OSIgaGVpZ2h0PSI5MS44ODk5OTkiLz4mI3hhOyYjeGE7PHBhdGggaWQ9InBhdGg1NjgzOSIgaW5rc2NhcGU6Y29ubmVjdG9yLWN1cnZhdHVyZT0iMCIgc3R5bGU9ImZpbGw6I2ZmZmZmZiIgZD0ibSA0NC4yNCw4LjAxIGMgMCw0LjQgLTEwLjAxLDguMDEgLTIyLjIyLDguMDEgQyA5LjgxLDE2LjAyIDAsMTIuNDEgMCw4LjAxIDAsMy42IDEwLjAxLDAgMjIuMjIsMCAzNC40MywwIDQ0LjI0LDMuNCA0NC4yNCw4LjAxIFoiLz4mI3hhOyYjeGE7PHBhdGggaWQ9InBhdGg1Njg0NyIgaW5rc2NhcGU6Y29ubmVjdG9yLWN1cnZhdHVyZT0iMCIgc3R5bGU9ImZpbGw6IzdmYmEwMCIgZD0ibSAzOS44Myw3LjQxIGMgMCwzIC03LjgsNS4yMSAtMTcuNjEsNS4yMSAtOS44MSwwIC0xNy42MiwtMi4yMSAtMTcuNjIsLTUuMjEgMCwtMyA3LjgxLC01LjIgMTcuNjIsLTUuMiA5LjgxLDAgMTcuNjEsMi40IDE3LjYxLDUuMiB6Ii8+JiN4YTsmI3hhOzxwYXRoIGlkPSJwYXRoNTY4NTUiIGlua3NjYXBlOmNvbm5lY3Rvci1jdXJ2YXR1cmU9IjAiIHN0eWxlPSJmaWxsOiNiOGQ0MzIiIGQ9Im0gMzYuMDMsMTAuNjEgYyAyLjQsLTAuOCAzLjYsLTIgMy42LC0zLjIxIDAsLTMgLTcuOCwtNS4yIC0xNy42MSwtNS4yIEMgMTIuMjEsMi4yIDQuNCw0LjYgNC40LDcuNCA0LjYsOC42MSA2LDkuODEgOC4yLDEwLjYxIGMgMy4yMSwtMS4yIDguMjEsLTIgMTQuMDIsLTIgNS42LDAgMTAuNjEsMC44IDEzLjgxLDIgeiIvPiYjeGE7PC9zdmc+;" vertex="1" parent="1">
          <mxGeometry x="709" y="280.99999999999955" width="59" height="59" as="geometry" />
        </mxCell>
        <mxCell id="e_ERtWOM5ls1ba6LLizI-25" value="&lt;font style=&quot;font-size: 17px;&quot;&gt;Data Factory&lt;/font&gt;" style="text;html=1;align=center;verticalAlign=middle;whiteSpace=wrap;rounded=1;fillColor=#f8cecc;strokeColor=#b85450;" vertex="1" parent="1">
          <mxGeometry x="698.5" y="220" width="81.5" height="46" as="geometry" />
        </mxCell>
        <mxCell id="e_ERtWOM5ls1ba6LLizI-26" value="" style="shape=flexArrow;endArrow=classic;html=1;rounded=0;" edge="1" parent="1">
          <mxGeometry width="50" height="50" relative="1" as="geometry">
            <mxPoint x="1101" y="310.08" as="sourcePoint" />
            <mxPoint x="1171" y="310.08" as="targetPoint" />
            <Array as="points">
              <mxPoint x="1131" y="310.08" />
            </Array>
          </mxGeometry>
        </mxCell>
        <mxCell id="e_ERtWOM5ls1ba6LLizI-29" value="" style="shape=flexArrow;endArrow=classic;html=1;rounded=0;" edge="1" parent="1">
          <mxGeometry width="50" height="50" relative="1" as="geometry">
            <mxPoint x="870" y="307.8200000000001" as="sourcePoint" />
            <mxPoint x="930" y="307.00000000000006" as="targetPoint" />
            <Array as="points">
              <mxPoint x="900" y="307.8200000000001" />
            </Array>
          </mxGeometry>
        </mxCell>
        <mxCell id="e_ERtWOM5ls1ba6LLizI-30" value="" style="shape=image;verticalLabelPosition=bottom;verticalAlign=top;imageAspect=0;aspect=fixed;image=data:image/svg+xml,PHN2ZyB4bWxuczpkYz0iaHR0cDovL3B1cmwub3JnL2RjL2VsZW1lbnRzLzEuMS8iIHhtbG5zOmNjPSJodHRwOi8vY3JlYXRpdmVjb21tb25zLm9yZy9ucyMiIHhtbG5zOnJkZj0iaHR0cDovL3d3dy53My5vcmcvMTk5OS8wMi8yMi1yZGYtc3ludGF4LW5zIyIgeG1sbnM6c3ZnPSJodHRwOi8vd3d3LnczLm9yZy8yMDAwL3N2ZyIgeG1sbnM9Imh0dHA6Ly93d3cudzMub3JnLzIwMDAvc3ZnIiB4bWxuczpzb2RpcG9kaT0iaHR0cDovL3NvZGlwb2RpLnNvdXJjZWZvcmdlLm5ldC9EVEQvc29kaXBvZGktMC5kdGQiIHhtbG5zOmlua3NjYXBlPSJodHRwOi8vd3d3Lmlua3NjYXBlLm9yZy9uYW1lc3BhY2VzL2lua3NjYXBlIiB2ZXJzaW9uPSIxLjEiIGlkPSJMYXllcl8xIiB4PSIwcHgiIHk9IjBweCIgd2lkdGg9IjQ1IiBoZWlnaHQ9IjUwIiB2aWV3Qm94PSIwIDAgNDUgNTAiIGVuYWJsZS1iYWNrZ3JvdW5kPSJuZXcgMCAwIDUwIDUwIiB4bWw6c3BhY2U9InByZXNlcnZlIiBzb2RpcG9kaTpkb2NuYW1lPSJyZXNvdXJjZS5zdmciIGlua3NjYXBlOnZlcnNpb249IjAuOTIuMyAoMjQwNTU0NiwgMjAxOC0wMy0xMSkiPjxtZXRhZGF0YSBpZD0ibWV0YWRhdGExMTAwMiI+PHJkZjpSREY+PGNjOldvcmsgcmRmOmFib3V0PSIiPjxkYzpmb3JtYXQ+aW1hZ2Uvc3ZnK3htbDwvZGM6Zm9ybWF0PjxkYzp0eXBlIHJkZjpyZXNvdXJjZT0iaHR0cDovL3B1cmwub3JnL2RjL2RjbWl0eXBlL1N0aWxsSW1hZ2UiLz48ZGM6dGl0bGUvPjwvY2M6V29yaz48L3JkZjpSREY+PC9tZXRhZGF0YT48ZGVmcyBpZD0iZGVmczExMDAwIi8+PHNvZGlwb2RpOm5hbWVkdmlldyBwYWdlY29sb3I9IiNmZmZmZmYiIGJvcmRlcmNvbG9yPSIjNjY2NjY2IiBib3JkZXJvcGFjaXR5PSIxIiBvYmplY3R0b2xlcmFuY2U9IjEwIiBncmlkdG9sZXJhbmNlPSIxMCIgZ3VpZGV0b2xlcmFuY2U9IjEwIiBpbmtzY2FwZTpwYWdlb3BhY2l0eT0iMCIgaW5rc2NhcGU6cGFnZXNoYWRvdz0iMiIgaW5rc2NhcGU6d2luZG93LXdpZHRoPSIxOTIwIiBpbmtzY2FwZTp3aW5kb3ctaGVpZ2h0PSIxMDE3IiBpZD0ibmFtZWR2aWV3MTA5OTgiIHNob3dncmlkPSJmYWxzZSIgZml0LW1hcmdpbi10b3A9IjAiIGZpdC1tYXJnaW4tbGVmdD0iMCIgZml0LW1hcmdpbi1yaWdodD0iMCIgZml0LW1hcmdpbi1ib3R0b209IjAiIGlua3NjYXBlOnpvb209IjE3IiBpbmtzY2FwZTpjeD0iMjIiIGlua3NjYXBlOmN5PSIyNSIgaW5rc2NhcGU6d2luZG93LXg9Ii04IiBpbmtzY2FwZTp3aW5kb3cteT0iLTgiIGlua3NjYXBlOndpbmRvdy1tYXhpbWl6ZWQ9IjEiIGlua3NjYXBlOmN1cnJlbnQtbGF5ZXI9IkxheWVyXzEiLz4mI3hhOzxwYXRoIGQ9Im0gMjIuNTYxLDIzLjE2NyBjIC0wLjEwMywwIC0wLjE5NywtMC4wMyAtMC4yODgsLTAuMDgzIEwgMy4wMTEsMTIuMDQ1IEMgMi44MjgsMTEuOTQyIDIuNzE5LDExLjc0OCAyLjcxOSwxMS41MzkgYyAwLC0wLjIwMyAwLjEwOCwtMC4zOTUgMC4yOTIsLTAuNDk2IEwgMjIuMTQ5LDAuMDc1IGMgMC4xODIsLTAuMSAwLjQwNSwtMC4xIDAuNTc5LDAgTCA0MS45OTQsMTEuMTIgYyAwLjE3NCwwLjEwMiAwLjI5LDAuMjkxIDAuMjksMC40OTYgMCwwLjIxMiAtMC4xMTYsMC40IC0wLjI5LDAuNTA0IEwgMjIuODUzLDIzLjA4NCBjIC0wLjA5MSwwLjA1MyAtMC4xODgsMC4wODMgLTAuMjkyLDAuMDgzIiBpZD0icGF0aDEwOTg5IiBpbmtzY2FwZTpjb25uZWN0b3ItY3VydmF0dXJlPSIwIiBzdHlsZT0iZmlsbDojMzk5OWM2Ii8+JiN4YTs8cGF0aCBkPSJtIDE5Ljc5Miw1MCBjIC0wLjEwNCwwIC0wLjIwNywtMC4wMjQgLTAuMjk1LC0wLjA3NyBMIDAuMjk1LDM4LjkxNyBDIDAuMTEsMzguODE0IDAsMzguNjI2IDAsMzguNDE2IFYgMTYuMzMxIGMgMCwtMC4yMDcgMC4xMSwtMC4zOTcgMC4yOTUsLTAuNTA2IDAuMTc2LC0wLjEgMC40MDEsLTAuMSAwLjU4NiwwIEwgMjAuMDgsMjYuODMxIGMgMC4xNzgsMC4xMDcgMC4yODYsMC4yOTcgMC4yODYsMC41MDQgdiAyMi4wODYgYyAwLDAuMjEyIC0wLjEwOCwwLjM5NyAtMC4yODYsMC41MDIgQyAxOS45ODUsNDkuOTc2IDE5Ljg4OCw1MCAxOS43OTIsNTAiIGlkPSJwYXRoMTA5OTEiIGlua3NjYXBlOmNvbm5lY3Rvci1jdXJ2YXR1cmU9IjAiIHN0eWxlPSJmaWxsOiM1OWI0ZDkiLz4mI3hhOzxwYXRoIGQ9Ik0gMjUuMjI1LDUwIEMgMjUuMTI3LDUwIDI1LjAyNiw0OS45NzYgMjQuOTMsNDkuOTIzIDI0Ljc1Miw0OS44MTggMjQuNjQyLDQ5LjYzNCAyNC42NDIsNDkuNDIxIFYgMjcuNDc4IGMgMCwtMC4yMDcgMC4xMSwtMC4zOTcgMC4yODgsLTAuNTA0IEwgNDQuMTI2LDE1Ljk3MiBjIDAuMTg1LC0wLjEwMiAwLjQwMywtMC4xMDIgMC41ODcsMCAwLjE3NiwwLjEwMyAwLjI4NywwLjI5NSAwLjI4NywwLjUgdiAyMS45NDMgYyAwLDAuMjExIC0wLjExMSwwLjM5OCAtMC4yODcsMC41MDIgTCAyNS41MTEsNDkuOTIzIEMgMjUuNDI5LDQ5Ljk3NiAyNS4zMjUsNTAgMjUuMjI1LDUwIiBpZD0icGF0aDEwOTkzIiBpbmtzY2FwZTpjb25uZWN0b3ItY3VydmF0dXJlPSIwIiBzdHlsZT0iZmlsbDojNTliNGQ5Ii8+JiN4YTs8cGF0aCBkPSJNIDI1LjIyNSw1MCBDIDI1LjEyNyw1MCAyNS4wMjYsNDkuOTc2IDI0LjkzLDQ5LjkyMyAyNC43NTIsNDkuODE4IDI0LjY0Miw0OS42MzQgMjQuNjQyLDQ5LjQyMSBWIDI3LjQ3OCBjIDAsLTAuMjA3IDAuMTEsLTAuMzk3IDAuMjg4LC0wLjUwNCBMIDQ0LjEyNiwxNS45NzIgYyAwLjE4NSwtMC4xMDIgMC40MDMsLTAuMTAyIDAuNTg3LDAgMC4xNzYsMC4xMDMgMC4yODcsMC4yOTUgMC4yODcsMC41IHYgMjEuOTQzIGMgMCwwLjIxMSAtMC4xMTEsMC4zOTggLTAuMjg3LDAuNTAyIEwgMjUuNTExLDQ5LjkyMyBDIDI1LjQyOSw0OS45NzYgMjUuMzI1LDUwIDI1LjIyNSw1MCIgaWQ9InBhdGgxMDk5NSIgaW5rc2NhcGU6Y29ubmVjdG9yLWN1cnZhdHVyZT0iMCIgc3R5bGU9Im9wYWNpdHk6MC41O2ZpbGw6I2ZmZmZmZiIvPiYjeGE7PC9zdmc+;" vertex="1" parent="1">
          <mxGeometry x="945" y="274.39" width="65" height="72.22" as="geometry" />
        </mxCell>
        <mxCell id="e_ERtWOM5ls1ba6LLizI-31" value="&lt;font style=&quot;font-size: 17px;&quot;&gt;ODS&lt;/font&gt;" style="text;html=1;align=center;verticalAlign=middle;whiteSpace=wrap;rounded=1;fillColor=#f8cecc;strokeColor=#b85450;" vertex="1" parent="1">
          <mxGeometry x="945" y="222" width="80" height="30" as="geometry" />
        </mxCell>
        <mxCell id="e_ERtWOM5ls1ba6LLizI-32" value="" style="shape=flexArrow;endArrow=classic;html=1;rounded=0;" edge="1" parent="1">
          <mxGeometry width="50" height="50" relative="1" as="geometry">
            <mxPoint x="628.5" y="313.3" as="sourcePoint" />
            <mxPoint x="698.5" y="313.3" as="targetPoint" />
            <Array as="points">
              <mxPoint x="658.5" y="313.3" />
            </Array>
          </mxGeometry>
        </mxCell>
        <mxCell id="e_ERtWOM5ls1ba6LLizI-33" value="&lt;font style=&quot;font-size: 13px;&quot;&gt;- Policies&amp;nbsp;&lt;/font&gt;&lt;div style=&quot;font-size: 13px;&quot;&gt;&lt;font style=&quot;font-size: 13px;&quot;&gt;- Countries&lt;/font&gt;&lt;/div&gt;&lt;div style=&quot;font-size: 13px;&quot;&gt;&lt;font style=&quot;font-size: 13px;&quot;&gt;-Date&lt;/font&gt;&lt;/div&gt;&lt;div style=&quot;font-size: 13px;&quot;&gt;&lt;font style=&quot;font-size: 13px;&quot;&gt;-Recoveries&lt;/font&gt;&lt;/div&gt;&lt;div style=&quot;font-size: 13px;&quot;&gt;&lt;font style=&quot;font-size: 13px;&quot;&gt;-Deaths&lt;/font&gt;&lt;/div&gt;&lt;div style=&quot;font-size: 13px;&quot;&gt;&lt;font style=&quot;font-size: 13px;&quot;&gt;-Cases&lt;/font&gt;&lt;/div&gt;" style="text;html=1;align=left;verticalAlign=middle;whiteSpace=wrap;rounded=1;perimeterSpacing=1;fillColor=#dae8fc;strokeColor=#6c8ebf;" vertex="1" parent="1">
          <mxGeometry x="1020" y="252.5" width="77.5" height="108" as="geometry" />
        </mxCell>
        <mxCell id="e_ERtWOM5ls1ba6LLizI-35" value="" style="image;aspect=fixed;html=1;points=[];align=center;fontSize=12;image=img/lib/azure2/analytics/Azure_Synapse_Analytics.svg;" vertex="1" parent="1">
          <mxGeometry x="1181" y="272" width="60" height="69" as="geometry" />
        </mxCell>
        <mxCell id="e_ERtWOM5ls1ba6LLizI-36" value="&lt;font style=&quot;font-size: 17px;&quot;&gt;Azure Synapse&lt;/font&gt;" style="text;html=1;align=center;verticalAlign=middle;whiteSpace=wrap;rounded=1;fillColor=#f8cecc;strokeColor=#b85450;" vertex="1" parent="1">
          <mxGeometry x="1171" y="214" width="80" height="46" as="geometry" />
        </mxCell>
        <mxCell id="e_ERtWOM5ls1ba6LLizI-37" value="" style="shape=flexArrow;endArrow=classic;html=1;rounded=0;" edge="1" parent="1">
          <mxGeometry width="50" height="50" relative="1" as="geometry">
            <mxPoint x="1249" y="305.58" as="sourcePoint" />
            <mxPoint x="1319" y="305.58" as="targetPoint" />
            <Array as="points">
              <mxPoint x="1279" y="305.58" />
            </Array>
          </mxGeometry>
        </mxCell>
        <mxCell id="e_ERtWOM5ls1ba6LLizI-38" value="" style="image;aspect=fixed;html=1;points=[];align=center;fontSize=12;image=img/lib/azure2/analytics/Power_BI_Embedded.svg;" vertex="1" parent="1">
          <mxGeometry x="1319" y="272" width="51" height="68" as="geometry" />
        </mxCell>
        <mxCell id="e_ERtWOM5ls1ba6LLizI-39" value="&lt;font style=&quot;font-size: 17px;&quot;&gt;Power BI&lt;/font&gt;" style="text;html=1;align=center;verticalAlign=middle;whiteSpace=wrap;rounded=1;fillColor=#f8cecc;strokeColor=#b85450;" vertex="1" parent="1">
          <mxGeometry x="1300" y="230" width="80" height="30" as="geometry" />
        </mxCell>
        <mxCell id="e_ERtWOM5ls1ba6LLizI-40" value="&lt;font style=&quot;font-size: 14px;&quot;&gt;Countries &amp;amp; Metrics Data&lt;/font&gt;" style="text;html=1;align=center;verticalAlign=middle;whiteSpace=wrap;rounded=1;perimeterSpacing=1;fillColor=#dae8fc;strokeColor=#6c8ebf;" vertex="1" parent="1">
          <mxGeometry x="297.5" y="341" width="85" height="39" as="geometry" />
        </mxCell>
        <mxCell id="e_ERtWOM5ls1ba6LLizI-41" value="&lt;font style=&quot;font-size: 25px;&quot;&gt;Challenge 1&lt;/font&gt;" style="shape=step;perimeter=stepPerimeter;whiteSpace=wrap;html=1;fixedSize=1;" vertex="1" parent="1">
          <mxGeometry x="35" y="440" width="525" height="80" as="geometry" />
        </mxCell>
        <mxCell id="e_ERtWOM5ls1ba6LLizI-42" value="&lt;font style=&quot;font-size: 25px;&quot;&gt;Challenge 2&lt;/font&gt;" style="shape=step;perimeter=stepPerimeter;whiteSpace=wrap;html=1;fixedSize=1;" vertex="1" parent="1">
          <mxGeometry x="560" y="440" width="440" height="80" as="geometry" />
        </mxCell>
        <mxCell id="e_ERtWOM5ls1ba6LLizI-43" value="&lt;font style=&quot;font-size: 25px;&quot;&gt;Challenge 3&lt;/font&gt;" style="shape=step;perimeter=stepPerimeter;whiteSpace=wrap;html=1;fixedSize=1;" vertex="1" parent="1">
          <mxGeometry x="1010" y="440" width="240" height="80" as="geometry" />
        </mxCell>
        <mxCell id="e_ERtWOM5ls1ba6LLizI-44" value="&lt;font style=&quot;font-size: 23px;&quot;&gt;Challenge 4&lt;/font&gt;" style="shape=step;perimeter=stepPerimeter;whiteSpace=wrap;html=1;fixedSize=1;" vertex="1" parent="1">
          <mxGeometry x="1240" y="440" width="170" height="80" as="geometry" />
        </mxCell>
        <mxCell id="e_ERtWOM5ls1ba6LLizI-45" value="&lt;font style=&quot;font-size: 25px;&quot;&gt;ELT&lt;/font&gt;" style="shape=step;perimeter=stepPerimeter;whiteSpace=wrap;html=1;fixedSize=1;" vertex="1" parent="1">
          <mxGeometry x="30" y="50" width="1360" height="80" as="geometry" />
        </mxCell>
        <mxCell id="e_ERtWOM5ls1ba6LLizI-46" value="" style="sketch=0;html=1;aspect=fixed;strokeColor=none;shadow=0;fillColor=#3B8DF1;verticalAlign=top;labelPosition=center;verticalLabelPosition=bottom;shape=mxgraph.gcp2.database_uploading" vertex="1" parent="1">
          <mxGeometry x="520" y="60" width="71.43" height="60" as="geometry" />
        </mxCell>
        <mxCell id="e_ERtWOM5ls1ba6LLizI-47" value="" style="shape=image;verticalLabelPosition=bottom;labelBackgroundColor=#ffffff;verticalAlign=top;aspect=fixed;imageAspect=0;image=data:image/svg+xml,PHN2ZyB4bWxuczpkYz0iaHR0cDovL3B1cmwub3JnL2RjL2VsZW1lbnRzLzEuMS8iIHhtbG5zOmNjPSJodHRwOi8vY3JlYXRpdmVjb21tb25zLm9yZy9ucyMiIHhtbG5zOnJkZj0iaHR0cDovL3d3dy53My5vcmcvMTk5OS8wMi8yMi1yZGYtc3ludGF4LW5zIyIgeG1sbnM6c3ZnPSJodHRwOi8vd3d3LnczLm9yZy8yMDAwL3N2ZyIgeG1sbnM9Imh0dHA6Ly93d3cudzMub3JnLzIwMDAvc3ZnIiB4bWxuczpzb2RpcG9kaT0iaHR0cDovL3NvZGlwb2RpLnNvdXJjZWZvcmdlLm5ldC9EVEQvc29kaXBvZGktMC5kdGQiIHhtbG5zOmlua3NjYXBlPSJodHRwOi8vd3d3Lmlua3NjYXBlLm9yZy9uYW1lc3BhY2VzL2lua3NjYXBlIiB2ZXJzaW9uPSIxLjEiIGlkPSJzdmc5ODUyMCIgaW5rc2NhcGU6dmVyc2lvbj0iMC45Mi4zICgyNDA1NTQ2LCAyMDE4LTAzLTExKSIgc29kaXBvZGk6ZG9jbmFtZT0ic3RyZWFtX2FuYWx5dGljcy5zdmciIHg9IjBweCIgeT0iMHB4IiB2aWV3Qm94PSIwIDAgMTIxLjYxIDk0LjM3MDA2OSIgeG1sOnNwYWNlPSJwcmVzZXJ2ZSIgd2lkdGg9IjEyMS42MSIgaGVpZ2h0PSI5NC4zNzAwNzEiPjxtZXRhZGF0YSBpZD0ibWV0YWRhdGEzMDk4Ij48cmRmOlJERj48Y2M6V29yayByZGY6YWJvdXQ9IiI+PGRjOmZvcm1hdD5pbWFnZS9zdmcreG1sPC9kYzpmb3JtYXQ+PGRjOnR5cGUgcmRmOnJlc291cmNlPSJodHRwOi8vcHVybC5vcmcvZGMvZGNtaXR5cGUvU3RpbGxJbWFnZSIvPjxkYzp0aXRsZS8+PC9jYzpXb3JrPjwvcmRmOlJERj48L21ldGFkYXRhPjxkZWZzIGlkPSJkZWZzMzA5NiI+JiN4YTsJJiN4YTsmI3hhOwkmI3hhOyYjeGE7CSYjeGE7JiN4YTsJJiN4YTsmI3hhOwkmI3hhOwkmI3hhOwkmI3hhOyYjeGE7CSYjeGE7CSYjeGE7CSYjeGE7JiN4YTsJCSYjeGE7CSYjeGE7CQkmI3hhOwkmI3hhOwkJJiN4YTsJJiN4YTsJCSYjeGE7CSYjeGE7CQkmI3hhOwkmI3hhOwkJJiN4YTsJJiN4YTsJCQkmI3hhOwkJJiN4YTsJCQkmI3hhOwkJPC9kZWZzPiYjeGE7PGZpbHRlciBpZD0iZmlsdGVyXzIiPiYjeGE7CTxmZUdhdXNzaWFuQmx1ciBpZD0iZmVHYXVzc2lhbkJsdXI5ODQ1OCIgc3RkRGV2aWF0aW9uPSIyIi8+JiN4YTs8L2ZpbHRlcj4mI3hhOzxzb2RpcG9kaTpuYW1lZHZpZXcgYm9yZGVyY29sb3I9IiM2NjY2NjYiIGJvcmRlcm9wYWNpdHk9IjEiIGZpdC1tYXJnaW4tYm90dG9tPSIwIiBmaXQtbWFyZ2luLWxlZnQ9IjAiIGZpdC1tYXJnaW4tcmlnaHQ9IjAiIGZpdC1tYXJnaW4tdG9wPSIwIiBncmlkdG9sZXJhbmNlPSIxMCIgZ3VpZGV0b2xlcmFuY2U9IjEwIiBpZD0ibmFtZWR2aWV3OTg1MjIiIGlua3NjYXBlOmN1cnJlbnQtbGF5ZXI9InN2Zzk4NTIwIiBpbmtzY2FwZTpjeD0iOC40ODMzMDc2IiBpbmtzY2FwZTpjeT0iMzkuNzI2NTgiIGlua3NjYXBlOnBhZ2VvcGFjaXR5PSIwIiBpbmtzY2FwZTpwYWdlc2hhZG93PSIyIiBpbmtzY2FwZTp3aW5kb3ctaGVpZ2h0PSIxMDE3IiBpbmtzY2FwZTp3aW5kb3ctbWF4aW1pemVkPSIxIiBpbmtzY2FwZTp3aW5kb3ctd2lkdGg9IjE5MjAiIGlua3NjYXBlOndpbmRvdy14PSItOCIgaW5rc2NhcGU6d2luZG93LXk9Ii04IiBpbmtzY2FwZTp6b29tPSIzLjg2ODgxNDEiIG9iamVjdHRvbGVyYW5jZT0iMTAiIHBhZ2Vjb2xvcj0iI2ZmZmZmZiIgc2hvd2dyaWQ9ImZhbHNlIj4mI3hhOwk8L3NvZGlwb2RpOm5hbWVkdmlldz4mI3hhOyYjeGE7PHBhdGggaWQ9InBhdGg5ODQ3MSIgaW5rc2NhcGU6Y29ubmVjdG9yLWN1cnZhdHVyZT0iMCIgc3R5bGU9ImZpbGw6IzdhN2E3YSIgZD0ibSAxMDUuMzEsNjMuOTYwMDc1IDIuOTIsLTcuNTMgMTMuMzgsLTQuNjMgdiAtMTAuNyBsIC0xLjQ2LC0wLjQ4IC0xMS45MiwtMy40MSAtMi45MiwtNy41NCA2LjA4LC0xMi40IC03LjU0LC03LjU0IC0xLjQ2LDAuNzMgLTEwLjk0LDUuNTkgLTcuNzgsLTMuMTYgLTQuODcsLTEyLjg5IEggNjcuODYgbCAtMC40OSwxLjQ2IC0zLjY1LDExLjQzIC03LjU0LDIuOTIgLTEyLjg5LC01LjYgLTcuNzgsNy41NCAwLjczLDEuNDYgMy40LDYuMzMgYyA2LjA4LC0zLjQxIDEyLjQxLC00Ljg3IDE5LjIyLC00Ljg3IDkuNDgsMC40OSAxOC4yNCwzLjg5IDI1LjA1LDEwLjIyIDEuNDYsMS4yMSAyLjkyLDIuMTkgNC42MiwzLjg5IDAuNzMsMC43MyAxLjQ2LDEuOTUgMS45NSwyLjY3IDQuNjIsOC4wMyAyLjY3LDE4LjI1IC00Ljg3LDI0LjMzIC01LjU5LDQuNjIgLTEzLjM3LDUuMzUgLTE5LjIxLDIuNjcgLTAuNzMsLTAuNDkgLTEuMjIsLTAuNDkgLTEuNDYsLTAuNzMgLTEuNDYsLTAuNzMgLTIuOTIsLTEuOTQgLTQuMTQsLTIuOTIgLTAuNDgsMCAtMC43MywtMC40OCAtMS40NiwtMC40OCAtMS40NSwwIC0yLjkxLDAuNzMgLTQuMTMsMS45NCBsIC0wLjQ5LDAuNDkgYyAtNC42Miw0LjYyIC05LjcyLDguMDIgLTE1LjU2LDkuNzMgbCAtMi4xOSw0LjYyIDcuMyw3LjI5IDAuNDgsMC40OSAxLjQ2LC0wLjczIDEwLjk1LC01LjU5IDcuNTQsMi45MiA0LjEzLDEyLjg5IGggMTAuOTQgbCAwLjQ5LC0xLjQ2IDMuODksLTExLjQzIDcuNTQsLTIuOTIgMTIuODksNS41OSA3LjMsLTguMDIgLTAuNzMsLTEuNDYgeiIvPiYjeGE7JiN4YTs8cGF0aCBpZD0icGF0aDk4NDc5IiBpbmtzY2FwZTpjb25uZWN0b3ItY3VydmF0dXJlPSIwIiBzdHlsZT0iZmlsbDojNDhjOGVmIiBkPSJtIDQwLjEzLDQ0Ljk5MDA3NSBjIC04LjI3LDguNzYgLTIxLjY0LDguNzYgLTI5LjQzLC0wLjQ4IC0wLjczLC0xLjIyIC0yLjY3LC0xLjIyIC0zLjQsMCAtMC40OSwwLjQ4IC0wLjczLDEuMjEgLTAuNzMsMS45NCAwLDAuNzMgMC40OSwxLjQ2IDAuNzMsMS45NSA5LjczLDEwLjk0IDI2LjAyLDExLjE5IDM2LjQ4LDAuNDkgOC4yNywtOC4yNyAyMS4xNiwtOC41MiAyOS4xOSwwLjcyIDEuMjEsMS4yMiAyLjY3LDEuMjIgMy40LDAgMC40OSwtMC40OCAwLjczLC0xLjIxIDAuNzMsLTEuOTQgMCwtMC43MyAtMC40OCwtMS40NiAtMC43MywtMS45NSAtOS43MywtMTAuOTQgLTI2LjAyLC0xMS4xOCAtMzYuMjQsLTAuNzMgeiIvPiYjeGE7JiN4YTs8cGF0aCBpZD0icGF0aDk4NDg3IiBpbmtzY2FwZTpjb25uZWN0b3ItY3VydmF0dXJlPSIwIiBzdHlsZT0iZmlsbDojMDBhYmVjIiBkPSJtIDU4LjM3LDQ5LjYyMDA3NSBjIC00LjYyLDAgLTguMjcsMS40NiAtMTEuNjcsNC44NiBsIC0wLjQ5LDAuNDkgLTAuNDksMC40OSBjIC01LjU5LDYuMDggLTEzLjM3LDkgLTIxLjE2LDguNzUgLTguMDIsMCAtMTUuMDcsLTMuODkgLTIwLjkxLC05LjczIC0xLjIyLC0xLjIxIC0yLjY4LC0xLjIxIC0zLjQxLDAgLTAuMjQsMCAtMC4yNCwwLjQ5IC0wLjI0LDEuMjIgMCwwLjczIDAuNzMsMS45NSAxLjIyLDIuMTkgNi4zMiw3LjMgMTUuMDgsMTEuNDMgMjQuMzIsMTEuNDMgOSwwLjQ5IDE3Ljc1LC0zLjQgMjQuNTYsLTEwLjcgbCAwLjQ5LC0wLjQ5IDAuNDgsLTAuNDggYyAyLjE5LC0yLjE5IDQuODcsLTMuNDEgOC4wMywtMy40MSAyLjkyLDAgNS41OSwxLjQ2IDguMDMsMy44OSAxLjIxLDEuMjIgMi42NywxLjIyIDMuNCwwIDAuNDksLTAuNDggMC43MywtMS4yMSAwLjczLC0xLjk0IDAsLTAuNzMgLTAuNDksLTEuNDYgLTAuNzMsLTEuOTUgLTMuNCwtMi42NyAtNy41NCwtNC42MiAtMTIuMTYsLTQuNjIgeiIvPiYjeGE7JiN4YTs8cGF0aCBpZD0icGF0aDk4NDk1IiBpbmtzY2FwZTpjb25uZWN0b3ItY3VydmF0dXJlPSIwIiBzdHlsZT0iZmlsbDojODRkNmVmIiBkPSJtIDM3Ljk0LDM5LjY0MDA3NSBjIDUuNTksLTYuMDggMTMuMzgsLTkgMjEuMTYsLTkgNy43OCwwIDE1LjA4LDMuODkgMjAuNDMsOS43MyAxLjIyLDEuMjIgMi42OCwxLjIyIDMuNDEsMCAwLjQ4LC0wLjQ5IDAuNzIsLTEuMjIgMC43MiwtMS45NSAwLC0wLjczIC0wLjQ4LC0xLjQ2IC0wLjcyLC0xLjk0IC02LjMzLC03LjMgLTE1LjA4LC0xMS40MyAtMjQuMzMsLTExLjQzIC05LjI0LDAgLTE3Ljc1LDMuNCAtMjQuNTYsMTAuNyBsIC0wLjQ5LDAuNDggLTAuNDgsMC40OSBjIC0yLjE5LDIuMTkgLTQuODcsMy40MSAtOC4wMywzLjQxIC0zLjE2LDAgLTUuNTksLTEuNDYgLTguMDMsLTMuOSAtMS4yMSwtMS4yMSAtMi42NywtMS4yMSAtMy40LDAgLTAuNDksMC40OSAtMC43MywxLjIyIC0wLjczLDEuOTUgMCwwLjczIDAuNDksMS40NiAwLjczLDEuOTUgMi45MiwzLjQgNy4zLDUuMzUgMTEuNDMsNS4zNSA0LjYyLDAgOC4yNywtMS40NiAxMS42NywtNC44NyBsIDAuNDksLTAuNDggeiIvPiYjeGE7JiN4YTs8cGF0aCBkPSJtIDM5Ljg4OTY2LDI1Ljc4IGMgNi4wOCwtMy40IDEyLjQsLTQuODYgMTkuMjEsLTQuODYgOS40OSwwLjQ4IDE4LjI0LDMuODkgMjUuMDUsMTAuMjEgMS4yMiwwLjk3IDIuMTksMS43IDMuNDEsMi42OCBsIDIwLjE4LC0yMC4xOSAtNC4xMywtNC4xMyAtMS40NiwwLjcyIC0xMC45NCw1LjYgLTcuNTQsLTIuOTIgLTQuODcsLTEyLjg5IGggLTEwLjk0IGwgLTAuNDksMS40NiAtMy42NSwxMS40MyAtNy41NCwyLjkyIC0xMi44OSwtNS42IC03Ljc4LDcuNTQgMC43MywxLjQ2IHoiIHN0eWxlPSJmaWxsOiNmMWYxZjE7ZmlsbC1vcGFjaXR5OjAuMiIgaW5rc2NhcGU6Y29ubmVjdG9yLWN1cnZhdHVyZT0iMCIgaWQ9InBhdGg5ODUxMyIvPiYjeGE7PC9zdmc+;" vertex="1" parent="1">
          <mxGeometry x="1030" y="59.14" width="80.08" height="61.71" as="geometry" />
        </mxCell>
        <mxCell id="e_ERtWOM5ls1ba6LLizI-48" value="" style="sketch=0;outlineConnect=0;fontColor=#232F3E;gradientColor=none;fillColor=#01A88D;strokeColor=none;dashed=0;verticalLabelPosition=bottom;verticalAlign=top;align=center;html=1;fontSize=12;fontStyle=0;aspect=fixed;shape=mxgraph.aws4.application_discovery_service_aws_agentless_collector;" vertex="1" parent="1">
          <mxGeometry x="176" y="60" width="70" height="70" as="geometry" />
        </mxCell>
        <mxCell id="e_ERtWOM5ls1ba6LLizI-49" value="&lt;font style=&quot;font-size: 17px;&quot;&gt;Data&amp;nbsp;&lt;/font&gt;&lt;div&gt;&lt;font style=&quot;font-size: 17px;&quot;&gt;Flow&lt;/font&gt;&lt;/div&gt;" style="text;html=1;align=center;verticalAlign=middle;whiteSpace=wrap;rounded=1;fillColor=#f8cecc;strokeColor=#b85450;" vertex="1" parent="1">
          <mxGeometry x="788.5" y="221" width="71.5" height="46" as="geometry" />
        </mxCell>
        <mxCell id="e_ERtWOM5ls1ba6LLizI-50" value="" style="shape=image;verticalLabelPosition=bottom;labelBackgroundColor=#ffffff;verticalAlign=top;aspect=fixed;imageAspect=0;image=data:image/svg+xml,PHN2ZyB4bWxuczpkYz0iaHR0cDovL3B1cmwub3JnL2RjL2VsZW1lbnRzLzEuMS8iIHhtbG5zOmNjPSJodHRwOi8vY3JlYXRpdmVjb21tb25zLm9yZy9ucyMiIHhtbG5zOnJkZj0iaHR0cDovL3d3dy53My5vcmcvMTk5OS8wMi8yMi1yZGYtc3ludGF4LW5zIyIgeG1sbnM6c3ZnPSJodHRwOi8vd3d3LnczLm9yZy8yMDAwL3N2ZyIgeG1sbnM9Imh0dHA6Ly93d3cudzMub3JnLzIwMDAvc3ZnIiB4bWxuczpzb2RpcG9kaT0iaHR0cDovL3NvZGlwb2RpLnNvdXJjZWZvcmdlLm5ldC9EVEQvc29kaXBvZGktMC5kdGQiIHhtbG5zOmlua3NjYXBlPSJodHRwOi8vd3d3Lmlua3NjYXBlLm9yZy9uYW1lc3BhY2VzL2lua3NjYXBlIiB2ZXJzaW9uPSIxLjEiIGlkPSJzdmc0ODU5MiIgaW5rc2NhcGU6dmVyc2lvbj0iMC45Mi4zICgyNDA1NTQ2LCAyMDE4LTAzLTExKSIgc29kaXBvZGk6ZG9jbmFtZT0iYW5hbHlzaXNfc2VydmljZXMuc3ZnIiB4PSIwcHgiIHk9IjBweCIgdmlld0JveD0iMCAwIDExMS4yNyA4OS45OSIgc3R5bGU9ImVuYWJsZS1iYWNrZ3JvdW5kOm5ldyAwIDAgMTExLjI3IDg5Ljk5OyIgeG1sOnNwYWNlPSJwcmVzZXJ2ZSI+PG1ldGFkYXRhIGlkPSJtZXRhZGF0YTE2MTY0Ij48cmRmOlJERj48Y2M6V29yayByZGY6YWJvdXQ9IiI+PGRjOmZvcm1hdD5pbWFnZS9zdmcreG1sPC9kYzpmb3JtYXQ+PGRjOnR5cGUgcmRmOnJlc291cmNlPSJodHRwOi8vcHVybC5vcmcvZGMvZGNtaXR5cGUvU3RpbGxJbWFnZSIvPjxkYzp0aXRsZS8+PC9jYzpXb3JrPjwvcmRmOlJERj48L21ldGFkYXRhPjxkZWZzIGlkPSJkZWZzMTYxNjIiLz4mI3hhOzxmaWx0ZXIgaWQ9ImZpbHRlcl8yIj4mI3hhOwk8ZmVHYXVzc2lhbkJsdXIgaWQ9ImZlR2F1c3NpYW5CbHVyNDg0OTIiIHN0ZERldmlhdGlvbj0iMiIvPiYjeGE7PC9maWx0ZXI+JiN4YTs8c29kaXBvZGk6bmFtZWR2aWV3IGJvcmRlcmNvbG9yPSIjNjY2NjY2IiBib3JkZXJvcGFjaXR5PSIxIiBmaXQtbWFyZ2luLWJvdHRvbT0iMCIgZml0LW1hcmdpbi1sZWZ0PSIwIiBmaXQtbWFyZ2luLXJpZ2h0PSIwIiBmaXQtbWFyZ2luLXRvcD0iMCIgZ3JpZHRvbGVyYW5jZT0iMTAiIGd1aWRldG9sZXJhbmNlPSIxMCIgaWQ9Im5hbWVkdmlldzQ4NTk0IiBpbmtzY2FwZTpjdXJyZW50LWxheWVyPSJzdmc0ODU5MiIgaW5rc2NhcGU6Y3g9IjQ3LjU5NjU3MSIgaW5rc2NhcGU6Y3k9IjQwLjMwNjcxOCIgaW5rc2NhcGU6cGFnZW9wYWNpdHk9IjAiIGlua3NjYXBlOnBhZ2VzaGFkb3c9IjIiIGlua3NjYXBlOndpbmRvdy1oZWlnaHQ9IjEwMTciIGlua3NjYXBlOndpbmRvdy1tYXhpbWl6ZWQ9IjEiIGlua3NjYXBlOndpbmRvdy13aWR0aD0iMTkyMCIgaW5rc2NhcGU6d2luZG93LXg9Ii04IiBpbmtzY2FwZTp3aW5kb3cteT0iLTgiIGlua3NjYXBlOnpvb209IjguNDQxMjQ5MiIgb2JqZWN0dG9sZXJhbmNlPSIxMCIgcGFnZWNvbG9yPSIjZmZmZmZmIiBzaG93Z3JpZD0iZmFsc2UiPiYjeGE7CTwvc29kaXBvZGk6bmFtZWR2aWV3PiYjeGE7JiN4YTs8cmVjdCBpZD0icmVjdDQ4NTA3IiB5PSIwIiBzdHlsZT0iZmlsbDojMzk5OWM2IiB3aWR0aD0iNDUuODIiIGhlaWdodD0iMzYiIHg9IjAiLz4mI3hhOyYjeGE7PHJlY3QgaWQ9InJlY3Q0ODUxNSIgeD0iMy4yNzAwMDA1IiB5PSI2LjU1MDAwMDIiIHN0eWxlPSJmaWxsOiNmZmZmZmYiIHdpZHRoPSIzOS4yNyIgaGVpZ2h0PSIyNi4xOCIvPiYjeGE7JiN4YTs8cmVjdCBpZD0icmVjdDQ4NTI2IiB4PSI5LjgxOTk5OTciIHk9IjU0IiBzdHlsZT0iZmlsbDojMzk5OWM2IiB3aWR0aD0iNDUuODIiIGhlaWdodD0iMzYiLz4mI3hhOyYjeGE7PHJlY3QgaWQ9InJlY3Q0ODUzNCIgeD0iMTMuMDkiIHk9IjYwLjU0MDAwMSIgc3R5bGU9ImZpbGw6I2ZmZmZmZiIgd2lkdGg9IjM5LjI3IiBoZWlnaHQ9IjI2LjE4Ii8+JiN4YTsmI3hhOzxyZWN0IGlkPSJyZWN0NDg1NDUiIHg9IjY1LjQ0OTk5NyIgeT0iMjEuMjciIHN0eWxlPSJmaWxsOiMzOTk5YzYiIHdpZHRoPSI0NS44MiIgaGVpZ2h0PSIzNiIvPiYjeGE7JiN4YTs8cmVjdCBpZD0icmVjdDQ4NTUzIiB4PSI2OC43MjAwMDEiIHk9IjI3LjgyIiBzdHlsZT0iZmlsbDojZmZmZmZmIiB3aWR0aD0iMzkuMjciIGhlaWdodD0iMjYuMTgiLz4mI3hhOyYjeGE7PHBhdGggaWQ9InBhdGg0ODU2MiIgaW5rc2NhcGU6Y29ubmVjdG9yLWN1cnZhdHVyZT0iMCIgc3R5bGU9ImZpbGw6bm9uZTtzdHJva2U6IzM5OTlDNjtzdHJva2Utd2lkdGg6MztzdHJva2UtbGluZWNhcDpzcXVhcmU7c3Ryb2tlLW1pdGVybGltaXQ6MzsiIGQ9IiAgTTMzLjIyLDczLjk2TDIyLjkxLDE5LjY0bDY1LjQ1LDIxLjI3TDMzLjIyLDczLjk2eiIvPiYjeGE7JiN4YTs8Y2lyY2xlIGlkPSJlbGxpcHNlNDg1NzAiIHN0eWxlPSJmaWxsOiMzOTk5QzY7IiBjeD0iMjMuNCIgY3k9IjE5LjYzIiByPSI0LjkxIi8+JiN4YTsmI3hhOzxjaXJjbGUgaWQ9ImVsbGlwc2U0ODU3OCIgc3R5bGU9ImZpbGw6IzM5OTlDNjsiIGN4PSIzMy4yMiIgY3k9IjczLjYzIiByPSI0LjkxIi8+JiN4YTsmI3hhOzxjaXJjbGUgaWQ9ImVsbGlwc2U0ODU4NiIgc3R5bGU9ImZpbGw6IzM5OTlDNjsiIGN4PSI4OC44NSIgY3k9IjQwLjkxIiByPSI0LjkxIi8+JiN4YTs8L3N2Zz4=;" vertex="1" parent="1">
          <mxGeometry x="789" y="281" width="71" height="57.57" as="geometry" />
        </mxCell>
      </root>
    </mxGraphModel>
  </diagram>
</mxfile>
